<svg width="162" height="32" viewBox="0 0 162 32" fill="none" xmlns="http://www.w3.org/2000/svg">
<path d="M0 4C0 1.79086 1.79086 0 4 0H158C160.209 0 162 1.79086 162 4V28C162 30.2091 160.209 32 158 32H4C1.79086 32 0 30.2091 0 28V4Z" fill="#1C1819"/>
<path fill-rule="evenodd" clip-rule="evenodd" d="M25.1054 14.9835L24.0521 14.4238L25.0988 13.8641C25.9188 13.431 25.9188 12.2582 25.0988 11.8251L20.8054 9.53291C20.2988 9.26637 19.6988 9.26637 19.1921 9.53291L14.8921 11.8318C14.0854 12.2649 14.0854 13.431 14.8921 13.8641L15.9388 14.4238L14.8921 14.9835C14.0854 15.4166 14.0854 16.5827 14.8921 17.0158L15.9388 17.5756L14.8921 18.1353C14.0854 18.5684 14.0854 19.7345 14.8921 20.1676L19.1854 22.4664C19.6921 22.733 20.2921 22.733 20.7988 22.4664L25.0921 20.1676C25.9054 19.7345 25.8921 18.5751 25.0988 18.1353L24.0521 17.5756L25.0921 17.0158C25.9054 16.5827 25.8921 15.4233 25.0988 14.9835H25.1054ZM24.4588 19.1481L20.2388 21.407C20.0921 21.4869 19.9054 21.4869 19.7454 21.407L15.5388 19.1481L17.2121 18.2552L19.1521 19.288L19.1854 19.308C19.4321 19.4413 19.7054 19.5146 19.9921 19.5146C20.2788 19.5146 20.5521 19.4413 20.7988 19.3147L22.7788 18.2486L24.4521 19.1414L24.4588 19.1481ZM22.5054 17.0425C22.5054 17.0425 22.5054 17.0425 22.4988 17.0425L20.2454 18.2552C20.0988 18.3352 19.9188 18.3352 19.7588 18.2552H19.7388L15.5388 16.003L17.2121 15.1035L19.1854 16.1629H19.1921C19.4521 16.3029 19.7254 16.3628 19.9988 16.3628C20.2721 16.3628 20.5454 16.3029 20.8054 16.1696L22.7854 15.1101L24.4654 16.003L22.5121 17.0492L22.5054 17.0425Z" fill="#F9F5F3"/>
<path d="M37.248 17.776L41.76 12.1H43.248L37.86 18.856L37.248 17.776ZM36.972 12.1H38.232V20.5H36.972V12.1ZM39.264 16.18L40.2 15.424L43.32 20.5H41.94L39.264 16.18ZM45.7203 14.02V20.5H44.4603V14.02H45.7203ZM45.7803 11.656V13.18H44.4003V11.656H45.7803ZM52.5195 16.756C52.5195 16.108 52.3875 15.636 52.1235 15.34C51.8675 15.036 51.4635 14.884 50.9115 14.884C50.2715 14.884 49.7795 15.108 49.4355 15.556C49.0915 15.996 48.9195 16.632 48.9195 17.464L48.4035 18.328V17.536C48.4035 16.368 48.6595 15.476 49.1715 14.86C49.6915 14.236 50.4275 13.924 51.3795 13.924C52.1955 13.924 52.7955 14.144 53.1795 14.584C53.5715 15.024 53.7675 15.708 53.7675 16.636V20.5H52.5195V16.756ZM47.6595 14.02H48.5715L48.9195 16.108V20.5H47.6595V14.02ZM58.088 20.596C57.184 20.596 56.496 20.436 56.024 20.116C55.56 19.788 55.276 19.284 55.172 18.604L56.456 18.544C56.504 18.96 56.66 19.268 56.924 19.468C57.188 19.66 57.572 19.756 58.076 19.756C58.548 19.756 58.912 19.676 59.168 19.516C59.432 19.348 59.564 19.116 59.564 18.82C59.564 18.572 59.488 18.38 59.336 18.244C59.184 18.108 58.98 18.004 58.724 17.932C58.468 17.86 58.188 17.8 57.884 17.752C57.58 17.704 57.276 17.644 56.972 17.572C56.668 17.5 56.388 17.396 56.132 17.26C55.884 17.124 55.68 16.94 55.52 16.708C55.368 16.468 55.292 16.152 55.292 15.76C55.292 15.16 55.528 14.704 56 14.392C56.472 14.072 57.168 13.912 58.088 13.912C58.648 13.912 59.124 13.984 59.516 14.128C59.916 14.264 60.228 14.472 60.452 14.752C60.684 15.032 60.832 15.38 60.896 15.796L59.6 15.856C59.568 15.496 59.428 15.224 59.18 15.04C58.932 14.856 58.576 14.764 58.112 14.764C57.64 14.764 57.272 14.848 57.008 15.016C56.752 15.176 56.624 15.412 56.624 15.724C56.624 15.972 56.7 16.168 56.852 16.312C57.012 16.448 57.216 16.552 57.464 16.624C57.72 16.696 58 16.76 58.304 16.816C58.608 16.864 58.912 16.924 59.216 16.996C59.52 17.06 59.796 17.16 60.044 17.296C60.3 17.432 60.504 17.62 60.656 17.86C60.816 18.092 60.896 18.404 60.896 18.796C60.896 19.38 60.656 19.828 60.176 20.14C59.704 20.444 59.008 20.596 58.088 20.596ZM64.562 20.596C63.946 20.596 63.494 20.444 63.206 20.14C62.926 19.828 62.786 19.348 62.786 18.7V14.14L63.146 12.46H64.034V18.532C64.034 18.932 64.102 19.212 64.238 19.372C64.382 19.524 64.634 19.6 64.994 19.6C65.114 19.6 65.238 19.592 65.366 19.576C65.494 19.56 65.618 19.528 65.738 19.48L65.918 20.356C65.79 20.404 65.65 20.448 65.498 20.488C65.346 20.52 65.19 20.544 65.03 20.56C64.87 20.584 64.714 20.596 64.562 20.596ZM61.622 14.02H65.678V14.944H61.622V14.02ZM71.0626 18.316V16.324C71.0626 15.82 70.9226 15.456 70.6426 15.232C70.3626 15 69.9146 14.884 69.2986 14.884C68.9146 14.884 68.5306 14.94 68.1466 15.052C67.7706 15.156 67.4146 15.304 67.0786 15.496L66.8986 14.584C67.1226 14.456 67.3866 14.344 67.6906 14.248C67.9946 14.144 68.3106 14.064 68.6386 14.008C68.9746 13.952 69.2946 13.924 69.5986 13.924C70.5186 13.924 71.2066 14.124 71.6626 14.524C72.1186 14.916 72.3466 15.516 72.3466 16.324V20.5H71.4346L71.0626 18.316ZM68.9866 20.596C68.2746 20.596 67.7146 20.436 67.3066 20.116C66.9066 19.788 66.7066 19.34 66.7066 18.772V18.448C66.7066 17.864 66.9106 17.412 67.3186 17.092C67.7266 16.764 68.3026 16.6 69.0466 16.6C69.8226 16.6 70.4346 16.756 70.8826 17.068C71.3386 17.38 71.5666 17.824 71.5666 18.4V18.736C71.5666 19.32 71.3346 19.776 70.8706 20.104C70.4146 20.432 69.7866 20.596 68.9866 20.596ZM69.3346 19.852C69.8626 19.852 70.2786 19.74 70.5826 19.516C70.8866 19.292 71.0386 18.996 71.0386 18.628V18.46C71.0386 18.108 70.8946 17.836 70.6066 17.644C70.3186 17.444 69.9106 17.344 69.3826 17.344C68.9106 17.344 68.5426 17.436 68.2786 17.62C68.0146 17.796 67.8826 18.096 67.8826 18.52V18.664C67.8826 19.048 68.0106 19.344 68.2666 19.552C68.5226 19.752 68.8786 19.852 69.3346 19.852ZM79.2422 12.1H81.1742L84.0782 20.5H82.8062L80.2382 12.964H80.1902L77.6222 20.5H76.3382L79.2422 12.1ZM78.0902 17.44H82.3142V18.364H78.0902V17.44ZM88.8915 20.596C88.2835 20.596 87.7515 20.472 87.2955 20.224C86.8395 19.968 86.4835 19.612 86.2275 19.156C85.9795 18.692 85.8555 18.148 85.8555 17.524V16.948C85.8555 16.324 85.9795 15.788 86.2275 15.34C86.4835 14.884 86.8395 14.536 87.2955 14.296C87.7595 14.048 88.2995 13.924 88.9155 13.924C89.7795 13.924 90.4475 14.168 90.9195 14.656C91.3915 15.144 91.6275 15.836 91.6275 16.732V17.788C91.6275 18.684 91.3875 19.376 90.9075 19.864C90.4355 20.352 89.7635 20.596 88.8915 20.596ZM85.1595 14.02H85.9515L86.4195 16.024V22.66H85.1595V14.02ZM88.6635 19.672C89.1995 19.672 89.6155 19.5 89.9115 19.156C90.2155 18.804 90.3675 18.324 90.3675 17.716V16.84C90.3675 16.208 90.2155 15.724 89.9115 15.388C89.6155 15.044 89.1995 14.872 88.6635 14.872C87.9595 14.872 87.4075 15.068 87.0075 15.46C86.6155 15.844 86.4195 16.384 86.4195 17.08V17.416C86.4195 18.112 86.6195 18.664 87.0195 19.072C87.4195 19.472 87.9675 19.672 88.6635 19.672ZM97.0595 20.596C96.4515 20.596 95.9195 20.472 95.4635 20.224C95.0075 19.968 94.6515 19.612 94.3955 19.156C94.1475 18.692 94.0235 18.148 94.0235 17.524V16.948C94.0235 16.324 94.1475 15.788 94.3955 15.34C94.6515 14.884 95.0075 14.536 95.4635 14.296C95.9275 14.048 96.4675 13.924 97.0835 13.924C97.9475 13.924 98.6155 14.168 99.0875 14.656C99.5595 15.144 99.7955 15.836 99.7955 16.732V17.788C99.7955 18.684 99.5555 19.376 99.0755 19.864C98.6035 20.352 97.9315 20.596 97.0595 20.596ZM93.3275 14.02H94.1195L94.5875 16.024V22.66H93.3275V14.02ZM96.8315 19.672C97.3675 19.672 97.7835 19.5 98.0795 19.156C98.3835 18.804 98.5355 18.324 98.5355 17.716V16.84C98.5355 16.208 98.3835 15.724 98.0795 15.388C97.7835 15.044 97.3675 14.872 96.8315 14.872C96.1275 14.872 95.5755 15.068 95.1755 15.46C94.7835 15.844 94.5875 16.384 94.5875 17.08V17.416C94.5875 18.112 94.7875 18.664 95.1875 19.072C95.5875 19.472 96.1355 19.672 96.8315 19.672ZM109.391 16.756C109.391 16.108 109.259 15.636 108.995 15.34C108.739 15.036 108.335 14.884 107.783 14.884C107.143 14.884 106.651 15.108 106.307 15.556C105.963 15.996 105.791 16.632 105.791 17.464L105.263 18.328L105.275 17.536C105.275 16.368 105.531 15.476 106.043 14.86C106.563 14.236 107.299 13.924 108.251 13.924C109.067 13.924 109.667 14.144 110.051 14.584C110.443 15.024 110.639 15.708 110.639 16.636V20.5H109.391V16.756ZM104.531 11.62H105.791V16.108V20.5H104.531V11.62ZM115.488 20.596C114.816 20.596 114.236 20.484 113.748 20.26C113.268 20.036 112.896 19.716 112.632 19.3C112.376 18.876 112.248 18.372 112.248 17.788V16.732C112.248 16.148 112.376 15.648 112.632 15.232C112.896 14.808 113.268 14.484 113.748 14.26C114.236 14.036 114.816 13.924 115.488 13.924C116.16 13.924 116.736 14.036 117.216 14.26C117.704 14.484 118.076 14.808 118.332 15.232C118.596 15.648 118.728 16.148 118.728 16.732V17.788C118.728 18.372 118.596 18.876 118.332 19.3C118.076 19.716 117.704 20.036 117.216 20.26C116.736 20.484 116.16 20.596 115.488 20.596ZM115.488 19.612C116.096 19.612 116.576 19.448 116.928 19.12C117.288 18.784 117.468 18.336 117.468 17.776V16.744C117.468 16.176 117.288 15.728 116.928 15.4C116.576 15.072 116.096 14.908 115.488 14.908C114.88 14.908 114.396 15.076 114.036 15.412C113.676 15.74 113.496 16.184 113.496 16.744V17.776C113.496 18.336 113.676 18.784 114.036 19.12C114.396 19.448 114.88 19.612 115.488 19.612ZM122.881 20.596C121.977 20.596 121.289 20.436 120.817 20.116C120.353 19.788 120.069 19.284 119.965 18.604L121.249 18.544C121.297 18.96 121.453 19.268 121.717 19.468C121.981 19.66 122.365 19.756 122.869 19.756C123.341 19.756 123.705 19.676 123.961 19.516C124.225 19.348 124.357 19.116 124.357 18.82C124.357 18.572 124.281 18.38 124.129 18.244C123.977 18.108 123.773 18.004 123.517 17.932C123.261 17.86 122.981 17.8 122.677 17.752C122.373 17.704 122.069 17.644 121.765 17.572C121.461 17.5 121.181 17.396 120.925 17.26C120.677 17.124 120.473 16.94 120.313 16.708C120.161 16.468 120.085 16.152 120.085 15.76C120.085 15.16 120.321 14.704 120.793 14.392C121.265 14.072 121.961 13.912 122.881 13.912C123.441 13.912 123.917 13.984 124.309 14.128C124.709 14.264 125.021 14.472 125.245 14.752C125.477 15.032 125.625 15.38 125.689 15.796L124.393 15.856C124.361 15.496 124.221 15.224 123.973 15.04C123.725 14.856 123.369 14.764 122.905 14.764C122.433 14.764 122.065 14.848 121.801 15.016C121.545 15.176 121.417 15.412 121.417 15.724C121.417 15.972 121.493 16.168 121.645 16.312C121.805 16.448 122.009 16.552 122.257 16.624C122.513 16.696 122.793 16.76 123.097 16.816C123.401 16.864 123.705 16.924 124.009 16.996C124.313 17.06 124.589 17.16 124.837 17.296C125.093 17.432 125.297 17.62 125.449 17.86C125.609 18.092 125.689 18.404 125.689 18.796C125.689 19.38 125.449 19.828 124.969 20.14C124.497 20.444 123.801 20.596 122.881 20.596ZM129.355 20.596C128.739 20.596 128.287 20.444 127.999 20.14C127.719 19.828 127.579 19.348 127.579 18.7V14.14L127.939 12.46H128.827V18.532C128.827 18.932 128.895 19.212 129.031 19.372C129.175 19.524 129.427 19.6 129.787 19.6C129.907 19.6 130.031 19.592 130.159 19.576C130.287 19.56 130.411 19.528 130.531 19.48L130.711 20.356C130.583 20.404 130.443 20.448 130.291 20.488C130.139 20.52 129.983 20.544 129.823 20.56C129.663 20.584 129.507 20.596 129.355 20.596ZM126.415 14.02H130.471V14.944H126.415V14.02ZM133.166 14.02V20.5H131.906V14.02H133.166ZM133.226 11.656V13.18H131.846V11.656H133.226ZM139.965 16.756C139.965 16.108 139.833 15.636 139.569 15.34C139.313 15.036 138.909 14.884 138.357 14.884C137.717 14.884 137.225 15.108 136.881 15.556C136.537 15.996 136.365 16.632 136.365 17.464L135.849 18.328V17.536C135.849 16.368 136.105 15.476 136.617 14.86C137.137 14.236 137.873 13.924 138.825 13.924C139.641 13.924 140.241 14.144 140.625 14.584C141.017 15.024 141.213 15.708 141.213 16.636V20.5H139.965V16.756ZM135.105 14.02H136.017L136.365 16.108V20.5H135.105V14.02ZM145.674 18.58C144.802 18.58 144.118 18.392 143.622 18.016C143.126 17.64 142.878 17.116 142.878 16.444V16.06C142.878 15.38 143.126 14.856 143.622 14.488C144.118 14.112 144.802 13.924 145.674 13.924C146.554 13.924 147.238 14.112 147.726 14.488C148.222 14.856 148.47 15.38 148.47 16.06V16.444C148.47 17.116 148.222 17.64 147.726 18.016C147.238 18.392 146.554 18.58 145.674 18.58ZM144.63 22.744C143.974 22.744 143.474 22.612 143.13 22.348C142.786 22.092 142.614 21.712 142.614 21.208C142.614 20.712 142.782 20.336 143.118 20.08C143.454 19.816 143.954 19.684 144.618 19.684H146.73C147.378 19.684 147.874 19.816 148.218 20.08C148.562 20.336 148.734 20.712 148.734 21.208C148.734 21.712 148.562 22.092 148.218 22.348C147.874 22.612 147.378 22.744 146.73 22.744H144.63ZM146.514 21.976C147.178 21.976 147.51 21.72 147.51 21.208C147.51 20.704 147.178 20.452 146.514 20.452H144.846C144.158 20.452 143.814 20.704 143.814 21.208C143.814 21.736 144.158 21.992 144.846 21.976H146.514ZM144.234 19.996C143.898 19.996 143.634 19.92 143.442 19.768C143.25 19.608 143.154 19.396 143.154 19.132C143.154 18.86 143.246 18.648 143.43 18.496C143.614 18.344 143.882 18.268 144.234 18.268H145.674V18.58H144.918C144.702 18.58 144.534 18.628 144.414 18.724C144.294 18.82 144.238 18.956 144.246 19.132C144.246 19.316 144.298 19.456 144.402 19.552C144.514 19.64 144.678 19.684 144.894 19.684H145.674V19.996H144.234ZM145.674 17.716C146.178 17.716 146.562 17.604 146.826 17.38C147.098 17.148 147.234 16.824 147.234 16.408V16.084C147.234 15.668 147.098 15.348 146.826 15.124C146.562 14.892 146.178 14.776 145.674 14.776C145.186 14.776 144.802 14.892 144.522 15.124C144.25 15.348 144.114 15.668 144.114 16.084V16.408C144.114 16.816 144.25 17.136 144.522 17.368C144.802 17.6 145.186 17.716 145.674 17.716ZM147.054 14.332L148.794 13.744H149.106V14.74L147.054 14.884V14.332Z" fill="#F9F5F3"/>
</svg>
