<?xml version="1.0" encoding="utf-8"?><svg version="1.1" id="Layer_1" 
xmlns="http://www.w3.org/2000/svg" xmlns:xlink="http://www.w3.org/1999/xlink" x="0px" y="0px" 
viewBox="-40 -40 200 200" style="enable-background:new 0 0 122.88 113.4" xml:space="preserve"><style type="text/css">.st0{fill-rule:evenodd;clip-rule:evenodd;}</style><g><path class="st0" d="M6.43,48.74h110.01c3.54,0,6.43,2.89,6.43,6.43v13.19c-0.33,0.12-0.63,0.3-0.89,0.53l0.89,1.03v0l-0.89-1.02 c-5.83,5.04-9.52,6.67-12.19,6.55c-2.34-0.11-4.36-1.9-6.49-3.79c-5.61-4.98-10.38-7.73-15.24-8.25c-4.87-0.53-9.5,1.17-14.75,5.08 c-0.22,0.11-0.42,0.25-0.61,0.41l0.08,0.09l0,0l-0.07-0.09l-0.32,0.28l-0.15,0.13c-0.03,0.02-0.07,0.05-0.1,0.08l0,0.01l0,0v0 c-0.06,0.04-0.29,0.24-0.69,0.56c-0.23,0.19-0.4,0.33-0.52,0.43c-0.04,0.03-0.07,0.05-0.11,0.08l0,0 c-2.16,1.72-4.01,2.94-5.62,3.73c-1.33,0.66-2.47,1.03-3.46,1.18c-0.99-0.15-2.12-0.52-3.45-1.18c-1.57-0.78-3.38-1.96-5.48-3.62 c-0.02-0.02-0.05-0.04-0.07-0.06l0,0l-0.07-0.05c-0.11-0.09-0.31-0.26-0.63-0.52c-0.23-0.19-0.4-0.33-0.52-0.42 c-0.03-0.03-0.07-0.06-0.1-0.09l0,0l-0.07-0.05v0c-0.04-0.03-0.11-0.1-0.25-0.21l-0.16-0.14c-0.03-0.03-0.07-0.07-0.1-0.1 c-0.2-0.18-0.42-0.34-0.66-0.46c-5.25-3.91-9.88-5.6-14.75-5.08c-4.86,0.52-9.63,3.27-15.24,8.25c-2.13,1.89-4.15,3.68-6.49,3.79 c-2.64,0.13-6.28-1.47-12.02-6.4c-0.04-0.04-0.07-0.07-0.11-0.11c-0.44-0.4-0.99-0.66-1.58-0.75V55.17 C0,51.63,2.9,48.74,6.43,48.74L6.43,48.74z M26.32,19.6h11.27v25.85H26.32V19.6L26.32,19.6z M94.4,3.14 c1.91,4.98-3.99,4.99-3.81,10.14c0.24,7.08,9.52,5.02,9.69-1.41c-0.2-2.12-1.93-2.71-1.01-4.97c-1.19,0.08-2.14,2.23-2.14,3.76 c0.15,1.97-3.37,1.67-1.77-0.73C96.74,7.86,96.06,4.29,94.4,3.14L94.4,3.14L94.4,3.14z M62.29,2.53c1.99,5.18-4.15,5.2-3.97,10.56 c0.26,7.37,9.92,5.22,10.09-1.47C68.2,9.41,66.4,8.8,67.37,6.45c-1.24,0.09-2.24,2.32-2.23,3.92c0.15,2.05-3.51,1.74-1.84-0.76 C64.73,7.45,64.02,3.73,62.29,2.53L62.29,2.53z M89.8,19.6h11.27v25.85H89.8V19.6L89.8,19.6z M57.74,19.6H69v25.85H57.74V19.6 L57.74,19.6z M30.7,0c2.32,6.05-4.85,6.07-4.63,12.32c0.3,8.6,11.57,6.1,11.78-1.71c-0.25-2.58-2.35-3.29-1.22-6.04 c-1.44,0.1-2.61,2.71-2.6,4.57c0.18,2.39-4.09,2.03-2.15-0.89C33.54,5.74,32.71,1.4,30.7,0L30.7,0z M51.36,69.39 C51.31,69.35,51.24,69.29,51.36,69.39L51.36,69.39L51.36,69.39z M72.15,69.39L72.15,69.39L72.15,69.39L72.15,69.39L72.15,69.39 L72.15,69.39L72.15,69.39z M122.87,83.81v23.16c0,3.54-2.9,6.43-6.43,6.43H6.43c-3.54,0-6.43-2.9-6.43-6.43V83.39 c6.06,4.03,10.83,5.32,14.93,4.98c5.73-0.48,9.58-3.9,13.65-7.51c3.47-3.08,5.93-4.74,8.04-4.97c1.9-0.2,3.97,0.82,6.81,3.09 l0.11,0.09l0,0l0,0c0.2,0.17-0.02-0.02,0.51,0.41l0.3,0.24c0.05,0.05,0.09,0.09,0.14,0.13l0,0c0.29,0.25,0.48,0.41,0.58,0.49 c0.19,0.17,0.41,0.35,0.6,0.52c2.24,1.99,4.41,3.91,6.93,5.34c2.68,1.52,5.63,2.43,9.16,2.17c3.54,0.26,6.48-0.64,9.16-2.17 c2.52-1.43,4.69-3.36,6.93-5.34c0.1-0.09,0.31-0.27,0.59-0.52c0.07-0.06,0.22-0.18,0.43-0.36c0.04-0.03,0.07-0.05,0.11-0.08l0,0 l0.04-0.04v0c0.08-0.06,0.23-0.19,0.45-0.36c0.18-0.15,0.27-0.23,0.32-0.27c0.05-0.03,0.09-0.07,0.14-0.1l0,0l0.05-0.04 c2.91-2.33,5-3.39,6.93-3.18c2.12,0.23,4.57,1.89,8.04,4.97c4.07,3.61,7.93,7.03,13.65,7.51C112.54,88.7,117.12,87.51,122.87,83.81 L122.87,83.81L122.87,83.81z"/></g></svg>