<?xml version="1.0" encoding="utf-8"?>
<!-- Generator: Adobe Illustrator 27.4.0, SVG Export Plug-In . SVG Version: 6.00 Build 0)  -->
<svg class="tax-compliance" version="1.1" id="InvioAutoFattureElettroniche-SVG" xmlns="http://www.w3.org/2000/svg" xmlns:xlink="http://www.w3.org/1999/xlink"
	 x="0px" y="0px" viewBox="0 0 496 501.33" style="enable-background:new 0 0 496 501.33;" xml:space="preserve">
<style type="text/css">
	#InvioAutoFattureElettroniche-SVG .st0{display:none;}
	#InvioAutoFattureElettroniche-SVG .st1{display:inline;fill:none; ;stroke-width:16;stroke-miterlimit:10;}
	#InvioAutoFattureElettroniche-SVG .st2{fill:none; ;stroke-width:16;stroke-miterlimit:10;}
</style>
<g id="Ñëîé_35">
	<g class="st0">
		<path class="st1" d="M282.03,394.78h62.56c5.28,0,10.24-2.4,13.44-6.56c3.28-4.16,4.4-9.6,3.12-14.72l-31.12-122.72H65.3
			L34.18,373.5c-1.28,5.12-0.16,10.56,3.12,14.72c3.2,4.16,8.16,6.56,13.44,6.56h62.56"/>
		<line class="st1" x1="121.3" y1="322.78" x2="273.3" y2="322.78"/>
		<line class="st1" x1="289.3" y1="322.78" x2="313.3" y2="322.78"/>
		<line class="st1" x1="81.3" y1="322.78" x2="105.3" y2="322.78"/>
		<line class="st1" x1="89.3" y1="290.78" x2="113.3" y2="290.78"/>
		<line class="st1" x1="137.3" y1="290.78" x2="161.3" y2="290.78"/>
		<line class="st1" x1="185.3" y1="290.78" x2="209.3" y2="290.78"/>
		<line class="st1" x1="233.3" y1="290.78" x2="257.3" y2="290.78"/>
		<line class="st1" x1="281.3" y1="290.78" x2="305.3" y2="290.78"/>
		<polygon class="st1" points="249.3,354.78 145.3,354.78 137.3,394.78 257.3,394.78 		"/>
		<path class="st1" d="M169.67,66.78h-84c-11.05,0-20,8.95-20,20v164"/>
		<line class="st1" x1="329.67" y1="250.78" x2="329.67" y2="226.78"/>
		<polyline class="st1" points="401.67,154.78 401.67,26.78 257.67,26.78 257.67,218.78 361.67,218.78 		"/>
		<polygon class="st1" points="401.67,178.78 361.67,178.78 361.67,218.78 369.67,218.78 401.67,186.78 		"/>
		<line class="st1" x1="225.67" y1="26.78" x2="225.67" y2="218.78"/>
		<line class="st1" x1="193.67" y1="34.78" x2="193.67" y2="210.78"/>
	</g>
	<g>
		<polyline class="st2" points="356.22,399.78 388.22,399.78 388.22,79.78 348.22,79.78 		"/>
		<polyline class="st2" points="268.22,79.78 148.22,79.78 148.22,111.78 		"/>
		<path class="st2" d="M324.22,87.78v-8c0-8.84-7.16-16-16-16c-8.84,0-16,7.16-16,16v48c0,8.84,7.16,16,16,16c8.84,0,16-7.16,16-16
			v-16h32v320h-160"/>
		<polyline class="st2" points="116.22,375.78 172.22,375.78 172.22,431.78 164.22,431.78 116.22,383.78 116.22,111.78 
			268.22,111.78 		"/>
		<line class="st2" x1="188.22" y1="207.78" x2="284.22" y2="207.78"/>
		<line class="st2" x1="164.22" y1="255.78" x2="308.22" y2="255.78"/>
		<line class="st2" x1="164.22" y1="287.78" x2="308.22" y2="287.78"/>
		<line class="st2" x1="164.22" y1="319.78" x2="252.22" y2="319.78"/>
	</g>
</g>
</svg>
