<?xml version="1.0" encoding="utf-8"?>
<!-- Generator: Adobe Illustrator 27.4.0, SVG Export Plug-In . SVG Version: 6.00 Build 0)  -->
<svg version="1.1" id="Icona-visualizzaColonne-SVG" xmlns="http://www.w3.org/2000/svg" xmlns:xlink="http://www.w3.org/1999/xlink"
	 x="0px" y="0px" viewBox="0 0 496 501.33" style="enable-background:new 0 0 496 501.33;" xml:space="preserve">
<style type="text/css">
	#Icona-visualizzaColonne-SVG .st0{display:none;}
	#Icona-visualizzaColonne-SVG .st1{display:inline;fill:none;stroke:#9DC450;stroke-width:16;stroke-miterlimit:10;}
	#Icona-visualizzaColonne-SVG .st2{display:inline;}
	#Icona-visualizzaColonne-SVG .st3{fill:#9DC44F;}
	#Icona-visualizzaColonne-SVG .st4{fill:none;stroke:#9DC450;stroke-width:16;stroke-miterlimit:10;}
	#Icona-visualizzaColonne-SVG .st5{display:none;fill:#494949;}
	#Icona-visualizzaColonne-SVG .st6{display:inline;fill:#494949;}
	#Icona-visualizzaColonne-SVG .st7{fill:none;stroke:#353535;stroke-width:20;stroke-linecap:round;stroke-linejoin:round;}
	#Icona-visualizzaColonne-SVG .st8{fill:#353535;stroke:#353535;stroke-width:6;stroke-miterlimit:10;}
	#Icona-visualizzaColonne-SVG .st9{display:inline;fill:none;stroke:#000000;stroke-width:20;stroke-linecap:round;stroke-linejoin:round;stroke-miterlimit:10;}
	#Icona-visualizzaColonne-SVG .st10{fill:none;stroke:#000000;stroke-width:20;stroke-linecap:round;stroke-linejoin:round;stroke-miterlimit:10;}
	#Icona-visualizzaColonne-SVG .st11{fill:none;stroke:#000000;stroke-width:20;stroke-linecap:round;stroke-linejoin:round;}
	#Icona-visualizzaColonne-SVG .st12{fill:none;stroke:#000000;stroke-width:20;stroke-linecap:round;stroke-linejoin:round;stroke-dasharray:11.731,39.1034;}
	#Icona-visualizzaColonne-SVG .st13{fill:none;stroke:#000000;stroke-width:20;stroke-linecap:round;stroke-linejoin:round;stroke-dasharray:13.1598,43.8661;}
	#Icona-visualizzaColonne-SVG .st14{display:none;fill:#14171C;}
	#Icona-visualizzaColonne-SVG .st15{display:none;fill:none;stroke-width:14.8272;stroke-linejoin:round;stroke-miterlimit:10;}
	#Icona-visualizzaColonne-SVG .st16{display:inline;fill:#353535;}
	#Icona-visualizzaColonne-SVG .st17{fill:#353535;stroke:#353535;stroke-width:5;stroke-miterlimit:10;}
	#Icona-visualizzaColonne-SVG .st18{display:inline;fill:none;stroke:#353535;stroke-width:20;stroke-linecap:round;stroke-linejoin:round;}
	#Icona-visualizzaColonne-SVG .st19{fill:none;stroke:#353535;stroke-width:13.0208;stroke-linecap:round;stroke-linejoin:round;}
	#Icona-visualizzaColonne-SVG .st20{fill:#353535;}
	
	#Icona-visualizzaColonne-SVG .st21{display:inline;fill:none;stroke:#353535;stroke-width:13.0208;stroke-linecap:round;stroke-linejoin:round;stroke-miterlimit:10;}
	#Icona-visualizzaColonne-SVG .st22{display:inline;fill:none;stroke:#353535;stroke-width:13.0208;stroke-miterlimit:10;}
	#Icona-visualizzaColonne-SVG .st23{display:none;fill:#494949;stroke:#4A494A;stroke-width:15.5152;stroke-miterlimit:10;}
	#Icona-visualizzaColonne-SVG .st24{display:inline;fill:none;stroke:#231F20;stroke-width:31.6759;stroke-miterlimit:10;}
	
	#Icona-visualizzaColonne-SVG .st25{display:inline;fill:none;stroke:#313131;stroke-width:24.281;stroke-linecap:round;stroke-linejoin:round;stroke-miterlimit:10;}
	#Icona-visualizzaColonne-SVG .st26{display:none;fill:none;stroke:#000000;stroke-width:51;stroke-miterlimit:10;}
	#Icona-visualizzaColonne-SVG .st27{display:inline;fill:none;stroke-width:14.1847;stroke-linejoin:round;stroke-miterlimit:10;}
	#Icona-visualizzaColonne-SVG .st28{fill:none;stroke-width:13.4964;stroke-miterlimit:10;}
	#Icona-visualizzaColonne-SVG .st29{fill:none;stroke-width:12.5934;stroke-miterlimit:10;display:none;}
	#Icona-visualizzaColonne-SVG .st30{display:none;fill:none;stroke-width:14.9039;stroke-linejoin:round;stroke-miterlimit:10;}
	#Icona-visualizzaColonne-SVG .st31{display:none;fill:none;stroke-width:15.2001;stroke-linejoin:round;stroke-miterlimit:10;}
</style>
<g id="Ñëîé_35">
	<g class="st0">
		<path class="st1" d="M282.03,394.78h62.56c5.28,0,10.24-2.4,13.44-6.56c3.28-4.16,4.4-9.6,3.12-14.72l-31.12-122.72H65.3
			L34.18,373.5c-1.28,5.12-0.16,10.56,3.12,14.72c3.2,4.16,8.16,6.56,13.44,6.56h62.56"/>
		<line class="st1" x1="121.3" y1="322.78" x2="273.3" y2="322.78"/>
		<line class="st1" x1="289.3" y1="322.78" x2="313.3" y2="322.78"/>
		<line class="st1" x1="81.3" y1="322.78" x2="105.3" y2="322.78"/>
		<line class="st1" x1="89.3" y1="290.78" x2="113.3" y2="290.78"/>
		<line class="st1" x1="137.3" y1="290.78" x2="161.3" y2="290.78"/>
		<line class="st1" x1="185.3" y1="290.78" x2="209.3" y2="290.78"/>
		<line class="st1" x1="233.3" y1="290.78" x2="257.3" y2="290.78"/>
		<line class="st1" x1="281.3" y1="290.78" x2="305.3" y2="290.78"/>
		<polygon class="st1" points="249.3,354.78 145.3,354.78 137.3,394.78 257.3,394.78 		"/>
		<path class="st1" d="M169.67,66.78h-84c-11.05,0-20,8.95-20,20v164"/>
		<line class="st1" x1="329.67" y1="250.78" x2="329.67" y2="226.78"/>
		<polyline class="st1" points="401.67,154.78 401.67,26.78 257.67,26.78 257.67,218.78 361.67,218.78 		"/>
		<polygon class="st1" points="401.67,178.78 361.67,178.78 361.67,218.78 369.67,218.78 401.67,186.78 		"/>
		<line class="st1" x1="225.67" y1="26.78" x2="225.67" y2="218.78"/>
		<line class="st1" x1="193.67" y1="34.78" x2="193.67" y2="210.78"/>
	</g>
	<g class="st0">
		<polyline class="st1" points="356.22,399.78 388.22,399.78 388.22,79.78 348.22,79.78 		"/>
		<polyline class="st1" points="268.22,79.78 148.22,79.78 148.22,111.78 		"/>
		<path class="st1" d="M324.22,87.78v-8c0-8.84-7.16-16-16-16c-8.84,0-16,7.16-16,16v48c0,8.84,7.16,16,16,16c8.84,0,16-7.16,16-16
			v-16h32v320h-160"/>
		<polyline class="st1" points="116.22,375.78 172.22,375.78 172.22,431.78 164.22,431.78 116.22,383.78 116.22,111.78 
			268.22,111.78 		"/>
		<line class="st1" x1="188.22" y1="207.78" x2="284.22" y2="207.78"/>
		<line class="st1" x1="164.22" y1="255.78" x2="308.22" y2="255.78"/>
		<line class="st1" x1="164.22" y1="287.78" x2="308.22" y2="287.78"/>
		<line class="st1" x1="164.22" y1="319.78" x2="252.22" y2="319.78"/>
	</g>
	<g class="st0">
		<polyline class="st1" points="352.67,137.56 352.67,65.56 120.67,65.56 		"/>
		<polygon class="st1" points="64.67,121.56 120.67,121.56 120.67,65.56 112.67,65.56 64.67,113.56 		"/>
		<path class="st1" d="M320.67,265.56c0,20.02-7.35,39.35-24,56h-16c4.48-13.43,8-21.95,8-36.54v-11.46h-16c-17.67,0-32-14.33-32-32
			v-16c0-17.67,14.33-32,32-32h16c17.67,0,32,14.33,32,32V265.56z"/>
		<path class="st1" d="M432.67,265.56c0,20.02-7.35,39.35-24,56h-16c4.48-13.43,8-21.95,8-36.54v-11.46h-16c-17.67,0-32-14.33-32-32
			v-16c0-17.67,14.33-32,32-32h16c17.67,0,32,14.33,32,32V265.56z"/>
		<polyline class="st1" points="352.67,377.56 352.67,433.56 64.67,433.56 64.67,145.56 		"/>
		<line class="st1" x1="440.67" y1="353.56" x2="96.67" y2="353.56"/>
		<line class="st1" x1="440.67" y1="161.56" x2="96.67" y2="161.56"/>
		<line class="st1" x1="216.67" y1="209.56" x2="128.67" y2="209.56"/>
		<line class="st1" x1="216.67" y1="241.56" x2="128.67" y2="241.56"/>
		<line class="st1" x1="216.67" y1="273.56" x2="128.67" y2="273.56"/>
		<line class="st1" x1="176.67" y1="305.56" x2="128.67" y2="305.56"/>
	</g>
	<g class="st0">
		<polyline class="st1" points="291.33,372.22 291.33,428.22 139.33,428.22 		"/>
		<polyline class="st1" points="59.33,372.22 115.33,372.22 115.33,428.22 107.33,428.22 59.33,380.22 59.33,108.22 171.33,108.22 
					"/>
		<polyline class="st1" points="195.33,116.22 195.33,60.22 347.33,60.22 		"/>
		<polyline class="st1" points="427.33,116.22 371.33,116.22 371.33,60.22 379.33,60.22 427.33,108.22 427.33,380.22 315.33,380.22 
					"/>
		<polyline class="st1" points="195.33,140.22 195.33,188.22 243.33,196.22 		"/>
		<path class="st1" d="M315.14,276.22c41.51-51.48,51.12-107.31,27.66-131.39c-26.57-26.38-92.29-11.4-147.47,43.39"/>
		<polyline class="st1" points="291.33,348.22 291.33,300.22 243.33,292.22 		"/>
		<path class="st1" d="M171.53,212.22c-41.51,51.48-51.12,107.31-27.66,131.39c26.57,26.38,92.29,11.4,147.47-43.39"/>
	</g>
	<g class="st0">
		<polyline class="st1" points="294.89,374 294.89,430 142.89,430 		"/>
		<polyline class="st1" points="62.89,374 118.89,374 118.89,430 110.89,430 62.89,382 62.89,110 174.89,110 		"/>
		<polyline class="st1" points="198.89,118 198.89,62 350.89,62 		"/>
		<polyline class="st1" points="430.89,118 374.89,118 374.89,62 382.89,62 430.89,110 430.89,382 318.89,382 		"/>
		<polyline class="st1" points="278.89,182 198.89,182 198.89,150 118.89,214 198.89,278 198.89,246 238.89,246 		"/>
		<line class="st1" x1="302.89" y1="182" x2="334.89" y2="182"/>
		<line class="st1" x1="350.89" y1="182" x2="366.89" y2="182"/>
		<line class="st1" x1="382.89" y1="182" x2="398.89" y2="182"/>
		<polyline class="st1" points="230.89,310 294.89,310 294.89,342 374.89,278 294.89,214 294.89,246 254.89,246 		"/>
		<line class="st1" x1="198.89" y1="310" x2="166.89" y2="310"/>
		<line class="st1" x1="150.89" y1="310" x2="134.89" y2="310"/>
		<line class="st1" x1="118.89" y1="310" x2="102.89" y2="310"/>
	</g>
	<g class="st0">
		<polyline class="st1" points="304.9,426.33 96.9,426.33 96.9,74.33 320.9,74.33 352.9,106.33 352.9,218.33 		"/>
		<polyline class="st1" points="304.9,98.33 304.9,122.33 328.9,122.33 		"/>
		<line class="st1" x1="224.9" y1="178.33" x2="304.9" y2="178.33"/>
		<line class="st1" x1="224.9" y1="146.33" x2="264.9" y2="146.33"/>
		<line class="st1" x1="224.9" y1="210.33" x2="264.9" y2="210.33"/>
		<polyline class="st1" points="288.9,346.33 288.9,290.33 256.9,290.33 312.9,218.33 368.9,290.33 336.9,290.33 336.9,306.33 		"/>
		<polyline class="st1" points="384.9,330.33 384.9,370.33 416.9,370.33 360.9,442.33 304.9,370.33 336.9,370.33 336.9,338.33 		"/>
		<line class="st1" x1="144.9" y1="314.33" x2="144.9" y2="386.33"/>
		<line class="st1" x1="176.9" y1="354.33" x2="176.9" y2="386.33"/>
		<line class="st1" x1="208.9" y1="314.33" x2="208.9" y2="386.33"/>
		<line class="st1" x1="240.9" y1="330.33" x2="240.9" y2="386.33"/>
		<g class="st2">
			<path class="st3" d="M113.43,172.65v-12h71.14v12H113.43z M113.43,197.87v-12h71.14v12H113.43z M174.23,242.31
				c-33.75,0-50.62-21.22-50.62-63.66c0-20.12,4.14-35.7,12.44-46.75c8.29-11.04,20.03-16.57,35.22-16.57c8.35,0,15.6,1.67,21.74,5
				c6.15,3.33,10.64,8.02,13.48,14.05l-14.61,11.05c-2.32-4.46-5.26-7.93-8.83-10.39c-3.57-2.46-7.44-3.7-11.61-3.7
				c-8.87,0-15.96,4.03-21.26,12.09c-5.3,8.06-7.96,19.51-7.96,34.35c0,32.35,11.65,48.53,34.96,48.53c7.88,0,15.6-1.74,23.13-5.22
				l4,15.31C194.69,240.34,184.66,242.31,174.23,242.31z"/>
		</g>
	</g>
	<g class="st0">
		<g class="st2">
			<polyline class="st4" points="351.56,183.11 351.56,111.11 319.55,79.11 95.56,79.11 95.56,431.11 351.56,431.11 351.56,415.11 
							"/>
			<polyline class="st4" points="303.56,103.11 303.56,127.11 327.56,127.11 			"/>
			<line class="st4" x1="223.56" y1="183.11" x2="303.56" y2="183.11"/>
			<line class="st4" x1="223.56" y1="151.11" x2="263.56" y2="151.11"/>
			<line class="st4" x1="143.56" y1="319.11" x2="143.56" y2="391.11"/>
			<line class="st4" x1="175.56" y1="359.11" x2="175.56" y2="391.11"/>
			<line class="st4" x1="207.56" y1="319.11" x2="207.56" y2="391.11"/>
			<line class="st4" x1="239.56" y1="335.11" x2="239.56" y2="391.11"/>
			<rect x="279.56" y="215.11" class="st4" width="144" height="176"/>
			<line class="st4" x1="279.56" y1="271.11" x2="423.56" y2="271.11"/>
			<line class="st4" x1="279.56" y1="311.11" x2="423.56" y2="311.11"/>
			<line class="st4" x1="279.56" y1="351.11" x2="375.56" y2="351.11"/>
			<line class="st4" x1="327.56" y1="391.11" x2="327.56" y2="271.11"/>
			<line class="st4" x1="375.56" y1="391.11" x2="375.56" y2="271.11"/>
		</g>
		<g class="st2">
			<path class="st3" d="M114.03,176.34v-12h71.14v12H114.03z M114.03,201.57v-12h71.14v12H114.03z M174.82,246.01
				c-33.75,0-50.62-21.22-50.62-63.66c0-20.12,4.14-35.7,12.44-46.75c8.29-11.04,20.03-16.57,35.22-16.57c8.35,0,15.6,1.67,21.74,5
				c6.15,3.33,10.64,8.02,13.48,14.05l-14.61,11.05c-2.32-4.46-5.26-7.93-8.83-10.39c-3.57-2.46-7.44-3.7-11.61-3.7
				c-8.87,0-15.96,4.03-21.26,12.09c-5.3,8.06-7.96,19.51-7.96,34.35c0,32.35,11.65,48.53,34.96,48.53c7.88,0,15.6-1.74,23.13-5.22
				l4,15.31C195.29,244.04,185.26,246.01,174.82,246.01z"/>
		</g>
	</g>
</g>
<g class="st0">
	<ellipse class="st1" cx="206.78" cy="226.44" rx="56" ry="24"/>
	<ellipse class="st1" cx="278.78" cy="306.44" rx="56" ry="24"/>
	<path class="st1" d="M222.78,306.44v40c0,13.26,25.07,24,56,24s56-10.74,56-24v-40"/>
	<path class="st1" d="M334.78,346.44v40c0,13.26-25.07,24-56,24s-56-10.74-56-24v-40"/>
	<path class="st1" d="M150.78,266.44v40c0,12.09,20.86,22.09,47.99,23.76"/>
	<line class="st1" x1="262.78" y1="258.44" x2="262.78" y2="226.44"/>
	<path class="st1" d="M150.78,226.44v40c0,12.53,22.42,22.82,51,23.91"/>
	<path class="st1" d="M198.79,370.2c-27.14-1.66-48.01-11.67-48.01-23.76v-40"/>
	<path class="st1" d="M278.78,202.44h24v48l112-88l-112-88v48h-128c-55.92-0.05-95.94,44.72-96,107.62
		c-0.03,31.83,10.21,62.17,28.63,84.38"/>
	<path class="st1" d="M90.78,287.55c-8.52-29.52,7.96-54.83,34.17-69.1"/>
</g>
<g class="st0">
	<ellipse class="st1" cx="308.11" cy="180.67" rx="56" ry="24"/>
	<path class="st1" d="M252.11,180.67v40c0,13.26,25.07,24,56,24s56-10.74,56-24v-40"/>
	<path class="st1" d="M180.11,140.67v40c0,12.09,20.86,22.09,47.99,23.76"/>
	<ellipse class="st1" cx="236.11" cy="100.67" rx="56" ry="24"/>
	<line class="st1" x1="292.11" y1="132.67" x2="292.11" y2="100.67"/>
	<path class="st1" d="M180.11,100.67v40c0,12.53,22.42,22.82,51,23.91"/>
	<path class="st1" d="M228.12,244.42c-27.14-1.66-48.01-11.67-48.01-23.76v-40"/>
	<path class="st1" d="M364.11,220.67v40c0,13.26-25.07,24-56,24s-56-10.74-56-24v-40"/>
	<path class="st1" d="M393.91,196.82c11.32,12.72,18.2,29.48,18.2,47.85c0,39.76-32.24,72-72,72h-120v-40l-112,80l112,80v-40h112
		c55.92,0.05,95.94-44.72,96-107.62c0.03-31.83-10.71-63.63-29.13-85.84"/>
</g>
<path class="st5" d="M337.95,215.49c-0.73-0.97-1.96-1.41-3.13-1.11l-131.36,33.14c-1.16,0.29-2.03,1.24-2.23,2.41
	c-0.2,1.18,0.32,2.36,1.32,3.01l28.35,18.5v30.74c0,1.16,0.67,2.23,1.73,2.72c0.41,0.19,0.84,0.28,1.27,0.28
	c0.69,0,1.38-0.24,1.93-0.7l19.97-16.72l27.52,18.11c0.49,0.33,1.07,0.49,1.65,0.49c0.23,0,0.45-0.03,0.68-0.08
	c0.8-0.19,1.49-0.69,1.91-1.4l50.58-86.06C338.75,217.77,338.67,216.46,337.95,215.49z M234.46,266.59l-22.89-14.93l99.89-25.2
	L234.46,266.59z M236.9,295.75v-20.4l6.12,3.99l7.55,4.97L236.9,295.75z M283.98,299.11l-37.67-24.78c0,0-0.01,0-0.01-0.01
	l-6.08-3.97l87.44-45.57L283.98,299.11z"/>
<g class="st0">
	<path class="st6" d="M280.15,262.82c-1.4-0.93-2.81-1.98-4.17-3c-5.58-4.15-12.52-9.31-18.15-3.68c-2.4,2.4-4.43,2.09-5.06,1.9
		c-1.09-0.92-4.61-3.92-8.25-7.53c-4.79-4.74-4.82-6.37-2.42-10.3c4.88-7.99,2.69-11.11-3.8-20.38l-0.28-0.4
		c-2.47-3.53-5.55-7.2-9.7-7.7c-3.91-0.48-7.33,1.99-10.16,4.46c-6.89,6.03-8.43,15.8-4.01,25.51c3.01,6.61,11.91,23.28,29.62,35.17
		c8.83,5.93,16.42,9.79,23.42,9.79c4.64,0,9.02-1.69,13.33-5.6c3.48-3.16,5.11-6.52,4.82-9.99
		C284.93,266.11,280.74,263.2,280.15,262.82z M276.49,276.62c-6.3,5.72-12.58,6.55-29.37-4.72c-16.43-11.04-24.71-26.53-27.5-32.67
		c-3.32-7.31-2.39-14.23,2.5-18.51c2.33-2.04,4.05-3.04,5.25-3.04c0.08,0,0.16,0,0.24,0.01c1.38,0.17,3.18,1.86,5.51,5.19l0.28,0.4
		c6.3,9,6.37,9.26,3.59,13.81c-4.59,7.51-2.26,12.17,3.31,17.69c4.56,4.52,8.82,8.04,9,8.19c0.17,0.14,0.35,0.26,0.55,0.36
		c2.29,1.17,7.44,1.86,12.23-2.94c1.77-1.77,4.64,0.03,10.32,4.25c1.43,1.06,2.91,2.16,4.44,3.18c0.01,0.01,0.02,0.02,0.04,0.02
		c0.02,0.01,2.31,1.62,2.49,3.72C279.52,273.44,277.88,275.35,276.49,276.62z"/>
	<path class="st6" d="M248,191.03c-32.56,0-59.05,26.49-59.05,59.05c0,10.11,2.6,20.05,7.53,28.84l-7.19,27.62
		c-0.27,1.03,0.03,2.12,0.77,2.87c0.57,0.57,1.34,0.89,2.13,0.89c0.24,0,0.49-0.03,0.73-0.09l28.77-7.26
		c8.13,4.05,17.2,6.18,26.31,6.18c32.56,0,59.05-26.49,59.05-59.05S280.56,191.03,248,191.03z M248,303.14
		c-8.69,0-16.98-2.04-24.64-6.07c-0.74-0.39-1.63-0.41-2.42-0.13c-0.05,0.02-0.1,0.04-0.15,0.06l-24.42,6.16l6.22-23.9
		c0.2-0.77,0.09-1.59-0.32-2.28c-4.79-8.13-7.32-17.43-7.32-26.89c0-29.25,23.8-53.05,53.05-53.05c29.25,0,53.05,23.8,53.05,53.05
		C301.05,279.34,277.25,303.14,248,303.14z"/>
</g>
<path class="st5" d="M248,193.49c-31.53,0-57.17,25.65-57.17,57.17s25.65,57.17,57.17,57.17s57.17-25.65,57.17-57.17
	S279.53,193.49,248,193.49z M292.03,224.63c-6.16,1.13-12.34,2.02-18.52,2.67c-2.29-10.78-6.14-19.73-11.01-25.7
	C274.99,205.3,285.5,213.64,292.03,224.63z M269.86,250.67c0,5.75-0.4,11.15-1.12,16.13c-13.77-1.09-27.62-1.09-41.48-0.01
	c-0.72-4.97-1.12-10.37-1.12-16.12c0-6.04,0.45-11.68,1.23-16.85c6.8,0.56,13.61,0.85,20.42,0.85c6.95,0,13.89-0.31,20.83-0.89
	C269.41,238.97,269.86,244.62,269.86,250.67z M248,199.49c7.64,0,15.68,10.79,19.53,28.36c-13.01,1.05-26.05,1.07-39.06,0.03
	C232.31,210.3,240.35,199.49,248,199.49z M233.5,201.6c-4.87,5.98-8.72,14.94-11.01,25.74c-6.2-0.64-12.38-1.53-18.55-2.65
	C210.45,213.68,220.98,205.3,233.5,201.6z M196.83,250.67c0-7.25,1.52-14.14,4.25-20.4c6.76,1.27,13.54,2.27,20.33,2.99
	c-0.82,5.47-1.27,11.31-1.27,17.41c0,5.82,0.41,11.4,1.16,16.66c-6.87,0.69-13.73,1.65-20.59,2.88
	C198.21,264.18,196.83,257.58,196.83,250.67z M203.46,275.81c6.29-1.08,12.58-1.94,18.87-2.57c2.27,11.13,6.2,20.37,11.18,26.49
	C220.67,295.94,209.93,287.24,203.46,275.81z M248,301.84c-7.75,0-15.9-11.1-19.69-29.12c13.16-1,26.3-1,39.37,0.01
	C263.9,290.74,255.75,301.84,248,301.84z M262.5,299.73c4.98-6.12,8.9-15.35,11.17-26.47c6.3,0.63,12.58,1.51,18.83,2.61
	C286.03,287.27,275.31,295.94,262.5,299.73z M274.7,267.33c0.75-5.26,1.16-10.85,1.16-16.67c0-6.11-0.45-11.97-1.28-17.45
	c6.78-0.73,13.55-1.73,20.31-3.01c2.75,6.27,4.28,13.19,4.28,20.47c0,6.94-1.39,13.56-3.91,19.6
	C288.44,269.01,281.58,268.04,274.7,267.33z"/>
<g class="st0">
	<path class="st6" d="M242.27,289.47c0.95,1.78,2.78,2.88,4.8,2.88c2.01,0,3.85-1.1,4.8-2.88l17.68-33.18
		c0.56-1.05,0.86-2.24,0.86-3.44v-52.76c0-4.07-3.31-7.38-7.38-7.38H231.1c-4.07,0-7.38,3.31-7.38,7.38v52.76
		c0,1.2,0.3,2.38,0.86,3.44L242.27,289.47z M247.06,285.71l-15.34-28.79h30.68L247.06,285.71z M229.73,200.09
		c0-0.76,0.62-1.38,1.38-1.38h31.92c0.76,0,1.38,0.62,1.38,1.38v50.84h-34.67V200.09z"/>
	<rect x="210.79" y="302.62" class="st6" width="74.43" height="6"/>
</g>
<g class="st0">
	<path class="st6" d="M317.54,281.45h-4.06v-73.26c0-6.69-5.44-12.13-12.13-12.13H194.65c-6.69,0-12.13,5.44-12.13,12.13v73.26
		h-4.06c-1.66,0-3,1.34-3,3v8.32c0,6.9,5.61,12.51,12.51,12.51h120.06c6.9,0,12.51-5.61,12.51-12.51v-8.32
		C320.54,282.79,319.2,281.45,317.54,281.45z M188.52,208.18c0-3.38,2.75-6.13,6.13-6.13h106.71c3.38,0,6.13,2.75,6.13,6.13v73.26
		h-41.99c-0.8,0-1.57,0.32-2.13,0.89c-0.56,0.57-0.88,1.34-0.87,2.15l0.01,0.88h-27.82v-0.92c0-1.66-1.34-3-3-3h-43.16V208.18z
		 M314.54,292.77c0,3.59-2.92,6.51-6.51,6.51H187.97c-3.59,0-6.51-2.92-6.51-6.51v-5.32h47.22v0.92c0,1.66,1.34,3,3,3h33.86
		c0.8,0,1.57-0.32,2.13-0.89c0.56-0.57,0.88-1.34,0.87-2.15l-0.01-0.88h46.01V292.77z"/>
	<path class="st6" d="M243.42,261.22c0.06,0,0.12,0,0.19-0.01c1.31-0.08,2.41-1,2.73-2.27l2.96-11.88l13.91,13.91
		c0.59,0.59,1.35,0.88,2.12,0.88c0.77,0,1.54-0.29,2.12-0.88c1.17-1.17,1.17-3.07,0-4.24l-13.91-13.91l11.88-2.96
		c1.27-0.32,2.19-1.42,2.27-2.73c0.08-1.31-0.69-2.51-1.92-2.98l-34.58-13.31c-1.11-0.43-2.36-0.16-3.2,0.68
		c-0.84,0.84-1.1,2.09-0.68,3.2l13.31,34.58C241.07,260.46,242.19,261.22,243.42,261.22z M254.75,236.34l-7.26,1.81
		c-0.73,0.03-1.45,0.31-2,0.87c-0.56,0.56-0.84,1.28-0.87,2l-1.81,7.26l-7.48-19.41L254.75,236.34z"/>
</g>
<g class="st0">
	<g class="st2">
		<path class="st7" d="M211.48,399.3c9.32,0,16.87-7.55,16.87-16.87l12.88-85.48c0.3-2.75,3.31-15.32,16.22-15.32
			c8.28,0,15.23,6.23,16.12,14.46l12.97,86.34c0,9.32,7.55,16.87,16.87,16.87c15.36,0,39.77-28.46,47.36-115.5
			c5.63-48.63,32.46-68.72,32.46-113.78c0-25.25-14.86-70.2-61.9-70.2c-27.67,0-36.83,18.35-63.81,18.35
			c-26.97,0-36.5-18.35-63.95-18.35c-47.04,0-61.9,44.94-61.9,70.2c0,45.06,26.83,65.15,32.46,113.78
			C171.65,370.08,196.33,399.3,211.48,399.3z"/>
	</g>
	<g class="st2">
		<path class="st8" d="M234.09,106.4c1.07,0.83,2.35,1.75,3.56,2.61c1.24,0.87,2.48,1.73,3.75,2.57c2.52,1.69,5.1,3.33,7.71,4.89
			c5.23,3.14,10.59,6.05,16.09,8.65c5.52,2.54,11.16,4.79,16.93,6.55c5.78,1.66,11.67,2.83,17.61,3.2l0.12,0.01
			c1.79,0.11,3.16,1.66,3.05,3.45c-0.11,1.69-1.5,3-3.17,3.05c-6.62,0.17-13.17-0.56-19.58-1.82c-6.38-1.36-12.6-3.24-18.7-5.43
			c-6.07-2.24-11.99-4.82-17.79-7.66c-2.9-1.41-5.77-2.9-8.6-4.47c-1.42-0.77-2.83-1.58-4.24-2.39c-1.42-0.84-2.77-1.64-4.27-2.6
			c-3.03-1.94-3.91-5.97-1.97-9c1.94-3.03,5.97-3.91,9-1.97c0.16,0.1,0.31,0.21,0.46,0.32L234.09,106.4z"/>
	</g>
</g>
<g class="st0">
	<path class="st9" d="M342.53,390.53H126.14c-0.41,0-0.74-0.33-0.74-0.74V183.51h217.86V389.8
		C343.26,390.2,342.93,390.53,342.53,390.53z"/>
	<path class="st9" d="M360.06,183.51H108.61c-0.41,0-0.74-0.33-0.74-0.74V138.7c0-0.41,0.33-0.74,0.74-0.74h251.45
		c0.41,0,0.74,0.33,0.74,0.74v44.08C360.8,183.18,360.47,183.51,360.06,183.51z"/>
	<path class="st9" d="M271.61,137.96h-74.56v-21.54c0-0.41,0.33-0.74,0.74-0.74h73.08c0.41,0,0.74,0.33,0.74,0.74V137.96z"/>
	<line class="st9" x1="289.72" y1="224.23" x2="289.72" y2="349.82"/>
	<line class="st9" x1="234.33" y1="224.23" x2="234.33" y2="349.82"/>
	<line class="st9" x1="178.94" y1="224.23" x2="178.94" y2="349.82"/>
</g>
<g class="st0">
	<g class="st2">
		<rect x="143.33" y="142.55" class="st10" width="283.97" height="254.44"/>
	</g>
	<g class="st2">
		<g>
			<g>
				<line class="st11" x1="139" y1="345.89" x2="133" y2="345.89"/>
				<polyline class="st11" points="93.59,345.89 87.59,345.89 87.59,339.89 				"/>
				<line class="st12" x1="87.59" y1="300.79" x2="87.59" y2="117"/>
				<polyline class="st11" points="87.59,97.45 87.59,91.45 93.59,91.45 				"/>
				<line class="st13" x1="137.45" y1="91.45" x2="343.63" y2="91.45"/>
				<polyline class="st11" points="365.56,91.45 371.56,91.45 371.56,97.45 				"/>
				<line class="st11" x1="371.56" y1="134.57" x2="371.56" y2="140.57"/>
			</g>
		</g>
	</g>
</g>
<g class="st0">
	<g class="st2">
		<rect x="136.79" y="151.67" class="st10" width="283.97" height="254.44"/>
	</g>
	<g class="st2">
		<polyline class="st10" points="132.46,355.01 81.05,355.01 81.05,100.57 365.02,100.57 365.02,149.69 		"/>
	</g>
</g>
<g class="st0">
	<g class="st2">
		<path class="st10" d="M239.65,345.16l-103.01,25.19l25.19-103.01L309.2,119.98c21.49-21.49,56.33-21.49,77.82,0l0,0
			c21.49,21.49,21.49,56.33,0,77.82L239.65,345.16z"/>
		<line class="st10" x1="161.16" y1="268.02" x2="238.98" y2="345.84"/>
		<line class="st10" x1="307.3" y1="121.89" x2="385.11" y2="199.7"/>
		<line class="st10" x1="279.12" y1="150.06" x2="356.94" y2="227.88"/>
	</g>
	<line class="st9" x1="200.07" y1="306.93" x2="318.03" y2="188.97"/>
</g>
<g class="st0">
	<path class="st9" d="M160.65,321.46h-36.75c-4.25,0-7.7-3.45-7.7-7.7V187.13c0-4.25,3.45-7.7,7.7-7.7h259.99
		c4.25,0,7.7,3.45,7.7,7.7v126.64c0,4.25-3.45,7.7-7.7,7.7h-36.75"/>
	<rect x="182.29" y="112.37" class="st9" width="143.2" height="67.06"/>
	<rect x="177.27" y="279.21" class="st9" width="153.24" height="109.31"/>
	<line class="st9" x1="341.62" y1="279.21" x2="166.16" y2="279.21"/>
	<line class="st9" x1="301.47" y1="313.02" x2="206.31" y2="313.02"/>
	<line class="st9" x1="301.47" y1="349.94" x2="206.31" y2="349.94"/>
	<circle class="st2" cx="355.73" cy="212.28" r="10.63"/>
	<circle class="st2" cx="314.86" cy="212.28" r="10.63"/>
</g>
<path class="st14" d="M256.64,154.94l26.63,59.71l65.02,6.87c11.04,1.17,15.49,14.85,7.24,22.28l-48.56,43.77l13.56,63.96
	c2.3,10.86-9.34,19.32-18.96,13.77l-56.64-32.66l-56.64,32.66c-9.62,5.54-21.26-2.91-18.96-13.77l13.56-63.96l-48.56-43.77
	c-8.25-7.43-3.8-21.12,7.24-22.28l65.02-6.87l26.63-59.71C237.73,144.8,252.12,144.8,256.64,154.94z"/>
<path class="st15" d="M305.97,152.86l29.22,65.52l71.34,7.54c12.11,1.28,16.99,16.3,7.95,24.45l-53.29,48.03l14.88,70.18
	c2.53,11.92-10.25,21.2-20.8,15.11l-62.15-35.83l-62.15,35.83c-10.55,6.08-23.33-3.2-20.8-15.11l14.88-70.18l-53.29-48.03
	c-9.05-8.16-4.17-23.17,7.95-24.45l71.34-7.54l29.22-65.52C285.22,141.74,301.01,141.74,305.97,152.86z"/>
<g class="st0">
	<path class="st16" d="M125.22,197.89L125.22,197.89c1.32,0.22,2.64-0.08,3.72-0.86c1.09-0.78,1.82-1.94,2.03-3.27
		c1.16-7.06,6.85-30.1,31.26-30.1c7.03,0,11.64,2.3,16.97,4.97l1.28,0.68c0.17,0.14,0.36,0.28,0.55,0.4l0.09,0.05
		c0.91,0.56,1.66,0.97,2.47,1.42l0.18,0.1c0.85,0.46,1.71,0.92,2.57,1.36c1.71,0.89,3.47,1.74,5.24,2.54
		c3.73,1.7,7.26,3.1,10.79,4.3c3.99,1.32,7.69,2.28,11.28,2.95c4.21,0.71,8.05,0.97,11.71,0.78c0.86-0.04,1.57-0.73,1.66-1.59
		c0.05-0.47-0.09-0.92-0.39-1.29s-0.72-0.59-1.19-0.63l-0.15-0.02c-3.29-0.32-6.69-1.06-10.4-2.25c-1.28-0.44-2.62-0.95-4.12-1.57
		l-3.91-1.62l4.05-1.21c3.93-1.17,7.2-2.82,10.37-4.41c5.31-2.67,9.9-4.98,17-4.98c27.19,0,31.43,28.88,31.85,32.51l0.04,0.28
		c0.02,0.16,0.03,0.25,0.05,0.33l0.04,0.16c0.03,0.15,0.05,0.22,0.07,0.3c0.05,0.15,0.1,0.3,0.16,0.45c0.07,0.17,0.13,0.3,0.2,0.43
		c0.11,0.19,0.17,0.3,0.24,0.4l0.08,0.11c0.06,0.09,0.13,0.18,0.19,0.26l0.13,0.15c0.07,0.09,0.13,0.15,0.18,0.21l0.33,0.31
		c0.06,0.05,0.13,0.11,0.19,0.15l0.17,0.13c0.08,0.05,0.14,0.1,0.21,0.14l0.19,0.12c0.07,0.04,0.15,0.08,0.22,0.12
		c0.07,0.04,0.13,0.07,0.2,0.1c0.06,0.03,0.13,0.06,0.2,0.09c0.1,0.04,0.17,0.07,0.25,0.09l0.19,0.06c0.12,0.04,0.22,0.06,0.33,0.08
		l0.13,0.03c0.15,0.03,0.29,0.05,0.43,0.07l0.15,0.02c0.32,0.02,0.65,0.02,0.95-0.01l0.11-0.02c0.14-0.02,0.26-0.04,0.38-0.06
		l0.15-0.04c0.1-0.02,0.2-0.05,0.3-0.08l0.19-0.06c0.08-0.03,0.17-0.06,0.25-0.09l0.42-0.2c0.05-0.03,0.13-0.07,0.2-0.11l0.19-0.12
		c0.06-0.04,0.13-0.09,0.2-0.14l0.37-0.3c0.04-0.04,0.11-0.1,0.17-0.16l0.16-0.15c0.06-0.06,0.11-0.12,0.16-0.18l0.1-0.12
		c0.11-0.13,0.18-0.23,0.24-0.33l0.06-0.08c0.08-0.12,0.15-0.24,0.22-0.37l0.04-0.07c0.15-0.3,0.26-0.57,0.34-0.85
		c0.04-0.11,0.06-0.22,0.08-0.33l0.03-0.13c0.02-0.12,0.04-0.24,0.05-0.35l0.02-0.13c0.36-3.4,4.27-32.6,31.86-32.6
		c7.02,0,11.64,2.3,16.97,4.97l1.28,0.68c0.17,0.14,0.36,0.28,0.55,0.4l0.09,0.05c0.92,0.56,1.69,0.99,2.51,1.44l0.14,0.08
		c0.88,0.48,1.72,0.93,2.57,1.36c1.71,0.88,3.46,1.74,5.24,2.54c3.72,1.69,7.25,3.1,10.79,4.3c3.99,1.32,7.69,2.28,11.28,2.95
		c4.21,0.71,8.05,0.97,11.71,0.78c0.86-0.04,1.58-0.72,1.66-1.58c0.09-0.96-0.61-1.83-1.58-1.92l-0.15-0.01
		c-3.29-0.32-6.69-1.06-10.4-2.25c-1.27-0.44-2.61-0.95-4.12-1.57l-3.91-1.62l4.05-1.21c3.93-1.17,7.2-2.82,10.37-4.41
		c5.32-2.67,9.9-4.98,17-4.98c24.24,0,30.02,22.82,31.21,29.82c0.46,2.72,3.06,4.55,5.79,4.1c2.72-0.46,4.56-3.06,4.09-5.78
		c-3.15-18.44-15.6-38.15-41.09-38.15c-9.48,0-15.86,3.21-21.5,6.05c-5.2,2.62-9.69,4.88-16.48,4.88c-6.81,0-11.35-2.27-16.61-4.9
		c-5.66-2.83-12.07-6.03-21.45-6.03c-15.43,0-28.07,7.54-35.59,21.22l-1.31,2.39l-1.32-2.38c-7.56-13.69-20.16-21.23-35.48-21.23
		c-9.47,0-15.86,3.21-21.5,6.04c-5.21,2.62-9.7,4.88-16.49,4.88c-6.81,0-11.35-2.27-16.61-4.9c-5.66-2.82-12.07-6.03-21.45-6.03
		c-25.67,0-38.09,19.89-41.15,38.5c-0.22,1.32,0.09,2.65,0.87,3.73C122.74,196.96,123.9,197.67,125.22,197.89z"/>
	<path class="st16" d="M424.09,211.54c-1.3-0.34-2.65-0.15-3.8,0.53c-1.15,0.68-1.97,1.76-2.31,3.06
		c-1.64,6.3-4.17,11.99-6.85,18.02c-4.17,9.38-8.9,20.01-10.57,34.43l-0.01,0.13c-1.92,21.97-5.88,39.7-11.48,51.3
		c-4.29,8.9-8.98,12.89-11.72,12.89c-2.77,0-5.03-2.26-5.03-5.03c0-0.25-0.02-0.5-0.06-0.74l-7.7-51.28
		c-0.88-7.42-7.14-12.99-14.57-12.99c-9.54,0-13.97,8.04-14.62,13.45l-7.65,50.81c-0.04,0.25-0.06,0.5-0.06,0.75
		c0,2.77-2.26,5.03-5.03,5.03c-3.49,0-18.6-11.42-23.2-64.17l-0.01-0.12c-1.67-14.43-6.4-25.07-10.57-34.45
		c-1.48-3.32-3-6.75-4.33-10.26l-0.77-2.03h48.21v8.01c0,2.76,2.25,5.01,5.01,5.01h26.04c2.76,0,5.01-2.25,5.01-5.01v-26.04
		c0-2.76-2.25-5.01-5.01-5.01h-26.04c-2.76,0-5.01,2.25-5.01,5.01v8.01H215.03v-8.01c0-2.76-2.25-5.01-5.01-5.01h-26.04
		c-2.76,0-5.01,2.25-5.01,5.01v26.04c0,2.76,2.25,5.01,5.01,5.01h26.04c2.76,0,5.01-2.25,5.01-5.01v-8.01h51.46l-0.77,2.03
		c-1.29,3.4-2.72,6.66-4.32,10.26c-4.17,9.38-8.9,20.01-10.57,34.43l-0.01,0.13c-1.92,21.97-5.88,39.7-11.48,51.3
		c-4.29,8.9-8.98,12.89-11.72,12.89c-2.77,0-5.03-2.26-5.03-5.03c0-0.25-0.02-0.5-0.06-0.75l-7.7-51.28
		c-0.88-7.42-7.14-12.99-14.57-12.99c-9.54,0-13.97,8.04-14.62,13.45l-7.65,50.81c-0.04,0.25-0.06,0.5-0.06,0.75
		c0,2.77-2.26,5.03-5.03,5.03c-3.49,0-18.6-11.42-23.2-64.17l-0.01-0.12c-1.67-14.43-6.4-25.07-10.57-34.45
		c-2.7-6.08-5.25-11.81-6.89-18.17c-0.69-2.67-3.43-4.29-6.1-3.6c-2.68,0.69-4.29,3.43-3.6,6.1c1.84,7.17,4.69,13.56,7.44,19.74
		c4.06,9.13,8.26,18.57,9.76,31.42c4.73,54.04,20.24,73.28,33.18,73.28c8.17,0,14.78-6.39,15.04-14.55l0.02-0.17l7.62-50.62
		c0.33-2.29,1.73-4.69,4.68-4.69c2.38,0,4.36,1.78,4.62,4.14l0.03,0.21l7.67,51.14c0.27,8.16,6.87,14.55,15.04,14.55
		c12.94,0,28.45-19.24,33.17-73.23c1.51-12.89,5.7-22.33,9.76-31.46c1.04-2.35,2.15-4.85,3.19-7.37l1.39-3.36l1.39,3.36
		c1.01,2.45,2.04,4.78,3.19,7.36c4.06,9.13,8.26,18.57,9.76,31.42c4.73,54.04,20.24,73.28,33.18,73.28
		c8.17,0,14.78-6.39,15.04-14.55l0.02-0.17l7.62-50.62c0.33-2.3,1.73-4.69,4.68-4.69c2.37,0,4.36,1.78,4.62,4.14l0.03,0.21
		l7.67,51.14c0.27,8.16,6.87,14.55,15.04,14.55c12.94,0,28.45-19.24,33.17-73.23c1.51-12.9,5.71-22.34,9.76-31.47
		c2.73-6.13,5.54-12.47,7.39-19.57C428.38,214.98,426.77,212.23,424.09,211.54z M341.99,207.84h16.02v16.02h-16.02V207.84z
		 M205.01,223.85h-16.02v-16.02h16.02V223.85z"/>
</g>
<g class="st0">
	<g class="st2">
		<g>
			<path class="st7" d="M197.98,136.87c-8.45-4.2-16.72-8.66-29.33-8.66c-40.9,0-53.83,39.08-53.83,61.04
				c0,39.18,23.33,56.66,28.23,98.94c6.54,75.03,28,100.44,41.18,100.44c8.1,0,14.67-6.57,14.67-14.67l11.2-74.33
				c0.26-2.39,2.88-13.32,14.1-13.32c7.2,0,13.24,5.42,14.02,12.58l11.28,75.08c0,8.1,6.57,14.67,14.67,14.67
				c13.35,0,34.58-24.75,41.18-100.44c1.87-16.11,5.77-25.91,10.65-38.99"/>
			<path class="st7" d="M220.02,143.79c1.91,0.24,2.09,0.37,4.23,0.37c23.46,0,31.42-15.96,55.48-15.96
				c40.9,0,53.83,39.08,53.83,61.04c0,15.33-3.24,24.06-5.99,33.06"/>
		</g>
		<g>
			<path class="st17" d="M221.64,143.42c6.1,3.7,12.43,7.03,19,9.68c6.56,2.63,13.4,4.63,20.34,5.18l0.04,0
				c1.8,0.14,3.14,1.72,2.99,3.51c-0.13,1.63-1.45,2.89-3.03,2.99c-7.9,0.53-15.73-0.58-23.28-2.38
				c-7.55-1.82-14.87-4.39-21.97-7.38l-0.02-0.01c-3.32-1.4-4.88-5.23-3.48-8.55c1.4-3.32,5.23-4.88,8.55-3.48
				C221.07,143.11,221.38,143.27,221.64,143.42z"/>
		</g>
	</g>
	<circle class="st18" cx="293.85" cy="170.53" r="81.38"/>
	<line class="st18" x1="350.57" y1="230.13" x2="414.3" y2="297.48"/>
</g>
<g class="st0">
	<g class="st2">
		<g>
			<path class="st19" d="M362.84,240.15c6.8-15.34,12.97-30.25,12.97-50.89c0-23.06-13.57-64.09-56.52-64.09
				c-25.26,0-33.63,16.75-58.26,16.75c-24.62,0-33.33-16.75-58.39-16.75c-42.95,0-56.52,41.03-56.52,64.09
				c0,41.14,24.5,59.49,29.64,103.89c6.87,78.78,29.4,105.46,43.24,105.46c8.51,0,15.4-6.89,15.4-15.4l11.76-78.04
				c0.27-2.51,3.02-13.99,14.81-13.99c7.56,0,13.9,5.69,14.72,13.2l11.84,78.83c0,8.51,6.89,15.4,15.4,15.4
				c7.54,0,17.47-7.51,26.12-26.82"/>
		</g>
		<g>
			<path class="st20" d="M239.96,130.72c0.96,0.75,2.12,1.59,3.22,2.38c1.13,0.79,2.25,1.59,3.4,2.35c2.29,1.55,4.63,3.05,7,4.49
				c4.75,2.88,9.62,5.55,14.62,7.94c5.01,2.33,10.14,4.4,15.38,6.03c5.25,1.53,10.6,2.62,15.99,2.99l0.12,0.01
				c1.79,0.12,3.15,1.67,3.03,3.47c-0.11,1.68-1.5,2.98-3.15,3.04c-6.07,0.18-12.09-0.47-17.97-1.6
				c-5.85-1.23-11.56-2.92-17.15-4.91c-5.57-2.03-11-4.38-16.32-6.95c-2.66-1.29-5.29-2.64-7.89-4.06c-1.31-0.7-2.6-1.44-3.89-2.18
				c-1.31-0.76-2.54-1.49-3.93-2.37c-3.04-1.93-3.93-5.96-2-9s5.96-3.93,9-2c0.18,0.11,0.34,0.23,0.51,0.36L239.96,130.72z"/>
		</g>
	</g>
	<path class="st21" d="M376.16,251.66l0.76,0.77c17.97,18.33,41.38,30.37,66.74,34.32l0,14.9c0,50.73-27.42,84.49-68.08,108.05
		c-40.67-23.56-68.64-57.67-68.64-108.05v-14.9l1.91-0.3c24.18-3.77,46.62-14.89,64.26-31.86L376.16,251.66z"/>
</g>
<g class="st0">
	<polyline class="st22" points="270.14,98.01 270.14,78.48 192.01,78.48 192.01,98.01 	"/>
	<polyline class="st22" points="283.11,377.96 126.91,377.96 126.91,91.5 192.01,91.5 192.01,117.55 270.14,117.55 270.14,91.5 
		348.26,91.5 348.26,189.16 	"/>
	<polyline class="st22" points="283.11,351.92 152.95,351.92 152.95,117.55 172.48,117.55 	"/>
	<polyline class="st22" points="322.22,189.16 322.22,117.55 270.14,117.55 	"/>
	<line class="st22" x1="185.49" y1="156.58" x2="250.61" y2="156.58"/>
	<line class="st22" x1="185.5" y1="182.63" x2="276.68" y2="182.63"/>
	<g class="st2">
		<g>
			<path class="st19" d="M319.18,377.96c5.47,0,9.9-4.43,9.9-9.9l7.56-50.17c0.18-1.62,1.94-8.99,9.52-8.99
				c4.86,0,8.94,3.66,9.46,8.49l7.61,50.68c0,5.47,4.43,9.9,9.9,9.9c9.01,0,23.34-16.7,27.8-67.79
				c3.31-28.54,19.05-40.34,19.05-66.79c0-14.82-8.72-41.2-36.33-41.2c-16.24,0-21.62,10.77-37.45,10.77
				c-15.83,0-21.42-10.77-37.54-10.77c-27.61,0-36.33,26.38-36.33,41.2c0,26.45,15.75,38.24,19.05,66.79
				C295.79,360.81,310.28,377.96,319.18,377.96z"/>
		</g>
		<g>
			<path class="st20" d="M334,203.85c0.54,0.46,1.27,1.02,1.94,1.53c0.69,0.52,1.39,1.04,2.1,1.55c1.42,1.02,2.87,2.01,4.34,2.96
				c2.95,1.9,5.98,3.68,9.09,5.28c3.12,1.56,6.31,2.96,9.57,4.08c3.26,1.06,6.58,1.84,9.93,2.17l0.15,0.01
				c1.79,0.18,3.1,1.77,2.92,3.56c-0.16,1.62-1.49,2.85-3.07,2.93c-4.02,0.21-8.01-0.13-11.9-0.78c-3.87-0.72-7.64-1.74-11.34-2.95
				c-3.68-1.24-7.27-2.69-10.79-4.29c-1.76-0.8-3.5-1.64-5.23-2.53c-0.87-0.44-1.73-0.9-2.59-1.37c-0.88-0.49-1.68-0.93-2.65-1.52
				l-0.11-0.06c-3.08-1.88-4.05-5.9-2.17-8.98c1.88-3.08,5.9-4.05,8.98-2.17C333.46,203.43,333.75,203.65,334,203.85z"/>
		</g>
	</g>
	<line class="st22" x1="185.49" y1="208.67" x2="250.61" y2="208.67"/>
	<line class="st22" x1="185.5" y1="234.71" x2="250.64" y2="234.71"/>
	<line class="st22" x1="185.5" y1="260.75" x2="250.64" y2="260.75"/>
	<line class="st22" x1="185.5" y1="286.79" x2="250.64" y2="286.79"/>
	<line class="st22" x1="185.5" y1="312.83" x2="263.66" y2="312.83"/>
</g>
<g class="st0">
	<polygon class="st2" points="150.94,69.67 332.6,251.33 150.94,433 186.17,468.23 403.06,251.33 186.17,34.44 	"/>
</g>
<g class="st0">
	<g class="st2">
		<polygon points="296.77,124.61 425.27,253.11 296.77,381.61 321.69,406.53 475.11,253.11 321.69,99.69 		"/>
	</g>
	<g class="st2">
		<rect x="26.33" y="235.49" width="423.86" height="35.24"/>
	</g>
</g>
<path class="st23" d="M316.54,245.45l-31.26-12.97c11.18-10.29,18.2-25.03,18.2-41.38c0-31.01-25.23-56.24-56.24-56.24
	S191,160.08,191,191.1c0,16.4,7.06,31.18,18.29,41.47l-31.28,12.85c-15.07,6.03-24.81,20.42-24.81,36.65v58.98
	c0,8.35,6.8,15.15,15.15,15.15h157.79c8.35,0,15.15-6.8,15.15-15.15v-58.98C341.29,265.83,331.55,251.45,316.54,245.45z
	 M202.64,191.1c0-24.6,20.01-44.61,44.61-44.61s44.61,20.01,44.61,44.61s-20.01,44.61-44.61,44.61S202.64,215.69,202.64,191.1z
	 M329.65,341.05c0,1.94-1.57,3.51-3.51,3.51H168.35c-1.94,0-3.51-1.57-3.51-3.51v-58.98c0-11.45,6.87-21.59,17.55-25.87l37.98-15.6
	l-0.06-0.15c8.01,4.39,17.19,6.89,26.94,6.89c9.75,0,18.92-2.49,26.92-6.87l37.99,15.76c10.63,4.25,17.5,14.4,17.5,25.85V341.05z"/>
<g class="st0">
	<polyline class="st24" points="211.68,135.32 211.68,219.79 127.21,219.79 	"/>
	<polyline class="st24" points="379.22,219.79 294.75,219.79 294.75,135.32 	"/>
	<polyline class="st24" points="294.75,387.33 294.75,302.86 379.22,302.86 	"/>
	<polyline class="st24" points="127.21,302.86 211.68,302.86 211.68,387.33 	"/>
</g>
<g class="st0">
	<line class="st25" x1="127.36" y1="369.86" x2="207.56" y2="289.66"/>
	<line class="st25" x1="127.36" y1="303.27" x2="127.36" y2="369.86"/>
	<line class="st25" x1="193.96" y1="369.86" x2="127.36" y2="369.86"/>
	<line class="st25" x1="382.3" y1="114.92" x2="302.1" y2="195.12"/>
	<line class="st25" x1="382.3" y1="181.51" x2="382.3" y2="114.92"/>
	<line class="st25" x1="315.71" y1="114.92" x2="382.3" y2="114.92"/>
	<line class="st25" x1="382.3" y1="369.86" x2="302.1" y2="289.66"/>
	<line class="st25" x1="315.71" y1="369.86" x2="382.3" y2="369.86"/>
	<line class="st25" x1="382.3" y1="303.27" x2="382.3" y2="369.86"/>
	<line class="st25" x1="127.36" y1="114.92" x2="207.56" y2="195.12"/>
	<line class="st25" x1="193.96" y1="114.92" x2="127.36" y2="114.92"/>
	<line class="st25" x1="127.36" y1="181.51" x2="127.36" y2="114.92"/>
</g>
<polyline class="st26" points="122.58,221.57 226.88,341.73 396.17,153.72 "/>
<g class="st0">
	<path class="st27" d="M271.42,186.1h-66.2c-10.45,0-18.91,8.47-18.91,18.91v113.48c0,10.45,8.47,18.91,18.91,18.91H318.7
		c10.45,0,18.91-8.47,18.91-18.91v-66.2"/>
	<circle class="st27" cx="318.7" cy="205.02" r="28.37"/>
</g>
<g>
	<line class="st28" x1="183.69" y1="204.96" x2="327.65" y2="204.96"/>
	<line class="st28" x1="183.69" y1="249.95" x2="327.65" y2="249.95"/>
	<line class="st28" x1="183.69" y1="294.94" x2="327.65" y2="294.94"/>
	<line class="st29" x1="199.43" y1="157.72" x2="311.9" y2="342.17"/>
</g>
<path class="st30" d="M224.87,240.56c6.24-6.23,9.7-14.95,8.61-23.7c-1.83-14.68,2.88-30.01,14.19-41.27
	c15.05-15.1,37.41-18.48,55.74-10.08l-29.73,29.73c-6.66,6.66-7.64,17.61-1.34,24.61c6.72,7.46,18.22,7.69,25.23,0.68L328,190.09
	c8.4,18.33,5.02,40.69-10.08,55.74c-11.26,11.3-26.6,16.02-41.27,14.19c-8.75-1.09-17.46,2.37-23.7,8.61l-55.46,55.49
	c-7.76,7.76-20.34,7.76-28.1,0c-7.76-7.76-7.76-20.34,0-28.1L224.87,240.56z"/>
<path class="st31" d="M294.99,340.13c6.89,7.85,17.02,12.77,28.32,12.77c7.55,0,14.59-2.23,20.47-6.03
	c-11.7-6.64-20.11-18.34-22.39-32.12c9.22-13.68,14.59-30.2,14.59-47.98c0-47.58-38.56-86.13-86.13-86.13s-86.13,38.56-86.13,86.13
	s38.56,86.13,86.13,86.13C266.41,352.9,281.87,348.24,294.99,340.13z"/>
</svg>
