<?xml version="1.0" encoding="utf-8"?>
<!-- Generator: Adobe Illustrator 27.4.0, SVG Export Plug-In . SVG Version: 6.00 Build 0)  -->
<svg version="1.1" id="NoteStampa-SVG" xmlns="http://www.w3.org/2000/svg" xmlns:xlink="http://www.w3.org/1999/xlink"
	 x="0px" y="0px" viewBox="0 0 496 501.33" style="enable-background:new 0 0 496 501.33;" xml:space="preserve">
<style type="text/css">
	#NoteStampa-SVG .st0{display:none;}
	#NoteStampa-SVG .st1{display:inline;fill:none;stroke:#9DC450;stroke-width:16;stroke-miterlimit:10;}
	#NoteStampa-SVG .st2{display:inline;}
	#NoteStampa-SVG .st3{fill:#9DC44F;}
	#NoteStampa-SVG .st4{fill:none;stroke:#9DC450;stroke-width:16;stroke-miterlimit:10;}
	#NoteStampa-SVG .st5{display:none;fill:#494949;}
	#NoteStampa-SVG .st6{display:inline;fill:#494949;}
	#NoteStampa-SVG .st7{display:inline;fill:none;stroke-width:14.0572;stroke-miterlimit:10;}
	#NoteStampa-SVG .st8{display:inline;fill:none;stroke-width:15.421;stroke-miterlimit:10;}
	#NoteStampa-SVG .st9{display:inline;fill:none;stroke-width:14.9257;stroke-miterlimit:10;}
	#NoteStampa-SVG .st10{display:inline;fill:none;stroke-width:13.5278;stroke-miterlimit:10;}
	#NoteStampa-SVG .st11{display:inline;fill:none;stroke-width:17.2918;stroke-miterlimit:10;}
	#NoteStampa-SVG .st12{display:inline;fill:none;stroke-width:16;stroke-miterlimit:10;}
	#NoteStampa-SVG .st13{fill:none;stroke-width:13.6049;stroke-miterlimit:10;}
	#NoteStampa-SVG .st14{fill:none;stroke-width:12;stroke-miterlimit:10;}
	#NoteStampa-SVG .st15{fill:none;stroke-width:13;stroke-miterlimit:10;}
	#NoteStampa-SVG .st16{display:inline;fill:none;stroke-width:12.2538;stroke-miterlimit:10;}
	#NoteStampa-SVG .st17{display:inline;fill:none;stroke-width:16;stroke-linejoin:round;stroke-miterlimit:10;}
	#NoteStampa-SVG .st18{display:inline;fill:none;stroke-width:18.2;stroke-miterlimit:10;}
	#NoteStampa-SVG .st19{fill:none;stroke-width:12.3912;stroke-miterlimit:10;}
	#NoteStampa-SVG .st20{fill:none;stroke-width:11.0168;stroke-miterlimit:10;}
	#NoteStampa-SVG .st21{fill:none;stroke-width:11.5486;stroke-miterlimit:10;}
	#NoteStampa-SVG .st22{fill:none;stroke-width:13.5934;stroke-miterlimit:10;}
	#NoteStampa-SVG .st23{fill:none;stroke-width:13.1567;stroke-miterlimit:10;}
	#NoteStampa-SVG .st24{fill:none;stroke-width:11.4501;stroke-miterlimit:10;}
	#NoteStampa-SVG .st25{display:inline;fill:none;stroke-width:12.101;stroke-linejoin:round;stroke-miterlimit:10;}
	#NoteStampa-SVG .st26{display:inline;fill:none;stroke-width:12.101;stroke-miterlimit:10;}
</style>
<g id="Ñëîé_35">
	<g class="st0">
		<path class="st1" d="M282.03,394.78h62.56c5.28,0,10.24-2.4,13.44-6.56c3.28-4.16,4.4-9.6,3.12-14.72l-31.12-122.72H65.3
			L34.18,373.5c-1.28,5.12-0.16,10.56,3.12,14.72c3.2,4.16,8.16,6.56,13.44,6.56h62.56"/>
		<line class="st1" x1="121.3" y1="322.78" x2="273.3" y2="322.78"/>
		<line class="st1" x1="289.3" y1="322.78" x2="313.3" y2="322.78"/>
		<line class="st1" x1="81.3" y1="322.78" x2="105.3" y2="322.78"/>
		<line class="st1" x1="89.3" y1="290.78" x2="113.3" y2="290.78"/>
		<line class="st1" x1="137.3" y1="290.78" x2="161.3" y2="290.78"/>
		<line class="st1" x1="185.3" y1="290.78" x2="209.3" y2="290.78"/>
		<line class="st1" x1="233.3" y1="290.78" x2="257.3" y2="290.78"/>
		<line class="st1" x1="281.3" y1="290.78" x2="305.3" y2="290.78"/>
		<polygon class="st1" points="249.3,354.78 145.3,354.78 137.3,394.78 257.3,394.78 		"/>
		<path class="st1" d="M169.67,66.78h-84c-11.05,0-20,8.95-20,20v164"/>
		<line class="st1" x1="329.67" y1="250.78" x2="329.67" y2="226.78"/>
		<polyline class="st1" points="401.67,154.78 401.67,26.78 257.67,26.78 257.67,218.78 361.67,218.78 		"/>
		<polygon class="st1" points="401.67,178.78 361.67,178.78 361.67,218.78 369.67,218.78 401.67,186.78 		"/>
		<line class="st1" x1="225.67" y1="26.78" x2="225.67" y2="218.78"/>
		<line class="st1" x1="193.67" y1="34.78" x2="193.67" y2="210.78"/>
	</g>
	<g class="st0">
		<polyline class="st1" points="356.22,399.78 388.22,399.78 388.22,79.78 348.22,79.78 		"/>
		<polyline class="st1" points="268.22,79.78 148.22,79.78 148.22,111.78 		"/>
		<path class="st1" d="M324.22,87.78v-8c0-8.84-7.16-16-16-16c-8.84,0-16,7.16-16,16v48c0,8.84,7.16,16,16,16c8.84,0,16-7.16,16-16
			v-16h32v320h-160"/>
		<polyline class="st1" points="116.22,375.78 172.22,375.78 172.22,431.78 164.22,431.78 116.22,383.78 116.22,111.78 
			268.22,111.78 		"/>
		<line class="st1" x1="188.22" y1="207.78" x2="284.22" y2="207.78"/>
		<line class="st1" x1="164.22" y1="255.78" x2="308.22" y2="255.78"/>
		<line class="st1" x1="164.22" y1="287.78" x2="308.22" y2="287.78"/>
		<line class="st1" x1="164.22" y1="319.78" x2="252.22" y2="319.78"/>
	</g>
	<g class="st0">
		<polyline class="st1" points="352.67,137.56 352.67,65.56 120.67,65.56 		"/>
		<polygon class="st1" points="64.67,121.56 120.67,121.56 120.67,65.56 112.67,65.56 64.67,113.56 		"/>
		<path class="st1" d="M320.67,265.56c0,20.02-7.35,39.35-24,56h-16c4.48-13.43,8-21.95,8-36.54v-11.46h-16c-17.67,0-32-14.33-32-32
			v-16c0-17.67,14.33-32,32-32h16c17.67,0,32,14.33,32,32V265.56z"/>
		<path class="st1" d="M432.67,265.56c0,20.02-7.35,39.35-24,56h-16c4.48-13.43,8-21.95,8-36.54v-11.46h-16c-17.67,0-32-14.33-32-32
			v-16c0-17.67,14.33-32,32-32h16c17.67,0,32,14.33,32,32V265.56z"/>
		<polyline class="st1" points="352.67,377.56 352.67,433.56 64.67,433.56 64.67,145.56 		"/>
		<line class="st1" x1="440.67" y1="353.56" x2="96.67" y2="353.56"/>
		<line class="st1" x1="440.67" y1="161.56" x2="96.67" y2="161.56"/>
		<line class="st1" x1="216.67" y1="209.56" x2="128.67" y2="209.56"/>
		<line class="st1" x1="216.67" y1="241.56" x2="128.67" y2="241.56"/>
		<line class="st1" x1="216.67" y1="273.56" x2="128.67" y2="273.56"/>
		<line class="st1" x1="176.67" y1="305.56" x2="128.67" y2="305.56"/>
	</g>
	<g class="st0">
		<polyline class="st1" points="291.33,372.22 291.33,428.22 139.33,428.22 		"/>
		<polyline class="st1" points="59.33,372.22 115.33,372.22 115.33,428.22 107.33,428.22 59.33,380.22 59.33,108.22 171.33,108.22 
					"/>
		<polyline class="st1" points="195.33,116.22 195.33,60.22 347.33,60.22 		"/>
		<polyline class="st1" points="427.33,116.22 371.33,116.22 371.33,60.22 379.33,60.22 427.33,108.22 427.33,380.22 315.33,380.22 
					"/>
		<polyline class="st1" points="195.33,140.22 195.33,188.22 243.33,196.22 		"/>
		<path class="st1" d="M315.14,276.22c41.51-51.48,51.12-107.31,27.66-131.39c-26.57-26.38-92.29-11.4-147.47,43.39"/>
		<polyline class="st1" points="291.33,348.22 291.33,300.22 243.33,292.22 		"/>
		<path class="st1" d="M171.53,212.22c-41.51,51.48-51.12,107.31-27.66,131.39c26.57,26.38,92.29,11.4,147.47-43.39"/>
	</g>
	<g class="st0">
		<polyline class="st1" points="294.89,374 294.89,430 142.89,430 		"/>
		<polyline class="st1" points="62.89,374 118.89,374 118.89,430 110.89,430 62.89,382 62.89,110 174.89,110 		"/>
		<polyline class="st1" points="198.89,118 198.89,62 350.89,62 		"/>
		<polyline class="st1" points="430.89,118 374.89,118 374.89,62 382.89,62 430.89,110 430.89,382 318.89,382 		"/>
		<polyline class="st1" points="278.89,182 198.89,182 198.89,150 118.89,214 198.89,278 198.89,246 238.89,246 		"/>
		<line class="st1" x1="302.89" y1="182" x2="334.89" y2="182"/>
		<line class="st1" x1="350.89" y1="182" x2="366.89" y2="182"/>
		<line class="st1" x1="382.89" y1="182" x2="398.89" y2="182"/>
		<polyline class="st1" points="230.89,310 294.89,310 294.89,342 374.89,278 294.89,214 294.89,246 254.89,246 		"/>
		<line class="st1" x1="198.89" y1="310" x2="166.89" y2="310"/>
		<line class="st1" x1="150.89" y1="310" x2="134.89" y2="310"/>
		<line class="st1" x1="118.89" y1="310" x2="102.89" y2="310"/>
	</g>
	<g class="st0">
		<polyline class="st1" points="304.9,426.33 96.9,426.33 96.9,74.33 320.9,74.33 352.9,106.33 352.9,218.33 		"/>
		<polyline class="st1" points="304.9,98.33 304.9,122.33 328.9,122.33 		"/>
		<line class="st1" x1="224.9" y1="178.33" x2="304.9" y2="178.33"/>
		<line class="st1" x1="224.9" y1="146.33" x2="264.9" y2="146.33"/>
		<line class="st1" x1="224.9" y1="210.33" x2="264.9" y2="210.33"/>
		<polyline class="st1" points="288.9,346.33 288.9,290.33 256.9,290.33 312.9,218.33 368.9,290.33 336.9,290.33 336.9,306.33 		"/>
		<polyline class="st1" points="384.9,330.33 384.9,370.33 416.9,370.33 360.9,442.33 304.9,370.33 336.9,370.33 336.9,338.33 		"/>
		<line class="st1" x1="144.9" y1="314.33" x2="144.9" y2="386.33"/>
		<line class="st1" x1="176.9" y1="354.33" x2="176.9" y2="386.33"/>
		<line class="st1" x1="208.9" y1="314.33" x2="208.9" y2="386.33"/>
		<line class="st1" x1="240.9" y1="330.33" x2="240.9" y2="386.33"/>
		<g class="st2">
			<path class="st3" d="M113.43,172.65v-12h71.14v12H113.43z M113.43,197.87v-12h71.14v12H113.43z M174.23,242.31
				c-33.75,0-50.62-21.22-50.62-63.66c0-20.12,4.14-35.7,12.44-46.75c8.29-11.04,20.03-16.57,35.22-16.57c8.35,0,15.6,1.67,21.74,5
				c6.15,3.33,10.64,8.02,13.48,14.05l-14.61,11.05c-2.32-4.46-5.26-7.93-8.83-10.39c-3.57-2.46-7.44-3.7-11.61-3.7
				c-8.87,0-15.96,4.03-21.26,12.09c-5.3,8.06-7.96,19.51-7.96,34.35c0,32.35,11.65,48.53,34.96,48.53c7.88,0,15.6-1.74,23.13-5.22
				l4,15.31C194.69,240.34,184.66,242.31,174.23,242.31z"/>
		</g>
	</g>
	<g class="st0">
		<g class="st2">
			<polyline class="st4" points="351.56,183.11 351.56,111.11 319.55,79.11 95.56,79.11 95.56,431.11 351.56,431.11 351.56,415.11 
							"/>
			<polyline class="st4" points="303.56,103.11 303.56,127.11 327.56,127.11 			"/>
			<line class="st4" x1="223.56" y1="183.11" x2="303.56" y2="183.11"/>
			<line class="st4" x1="223.56" y1="151.11" x2="263.56" y2="151.11"/>
			<line class="st4" x1="143.56" y1="319.11" x2="143.56" y2="391.11"/>
			<line class="st4" x1="175.56" y1="359.11" x2="175.56" y2="391.11"/>
			<line class="st4" x1="207.56" y1="319.11" x2="207.56" y2="391.11"/>
			<line class="st4" x1="239.56" y1="335.11" x2="239.56" y2="391.11"/>
			<rect x="279.56" y="215.11" class="st4" width="144" height="176"/>
			<line class="st4" x1="279.56" y1="271.11" x2="423.56" y2="271.11"/>
			<line class="st4" x1="279.56" y1="311.11" x2="423.56" y2="311.11"/>
			<line class="st4" x1="279.56" y1="351.11" x2="375.56" y2="351.11"/>
			<line class="st4" x1="327.56" y1="391.11" x2="327.56" y2="271.11"/>
			<line class="st4" x1="375.56" y1="391.11" x2="375.56" y2="271.11"/>
		</g>
		<g class="st2">
			<path class="st3" d="M114.03,176.34v-12h71.14v12H114.03z M114.03,201.57v-12h71.14v12H114.03z M174.82,246.01
				c-33.75,0-50.62-21.22-50.62-63.66c0-20.12,4.14-35.7,12.44-46.75c8.29-11.04,20.03-16.57,35.22-16.57c8.35,0,15.6,1.67,21.74,5
				c6.15,3.33,10.64,8.02,13.48,14.05l-14.61,11.05c-2.32-4.46-5.26-7.93-8.83-10.39c-3.57-2.46-7.44-3.7-11.61-3.7
				c-8.87,0-15.96,4.03-21.26,12.09c-5.3,8.06-7.96,19.51-7.96,34.35c0,32.35,11.65,48.53,34.96,48.53c7.88,0,15.6-1.74,23.13-5.22
				l4,15.31C195.29,244.04,185.26,246.01,174.82,246.01z"/>
		</g>
	</g>
</g>
<g class="st0">
	<ellipse class="st1" cx="206.78" cy="226.44" rx="56" ry="24"/>
	<ellipse class="st1" cx="278.78" cy="306.44" rx="56" ry="24"/>
	<path class="st1" d="M222.78,306.44v40c0,13.26,25.07,24,56,24s56-10.74,56-24v-40"/>
	<path class="st1" d="M334.78,346.44v40c0,13.26-25.07,24-56,24s-56-10.74-56-24v-40"/>
	<path class="st1" d="M150.78,266.44v40c0,12.09,20.86,22.09,47.99,23.76"/>
	<line class="st1" x1="262.78" y1="258.44" x2="262.78" y2="226.44"/>
	<path class="st1" d="M150.78,226.44v40c0,12.53,22.42,22.82,51,23.91"/>
	<path class="st1" d="M198.79,370.2c-27.14-1.66-48.01-11.67-48.01-23.76v-40"/>
	<path class="st1" d="M278.78,202.44h24v48l112-88l-112-88v48h-128c-55.92-0.05-95.94,44.72-96,107.62
		c-0.03,31.83,10.21,62.17,28.63,84.38"/>
	<path class="st1" d="M90.78,287.55c-8.52-29.52,7.96-54.83,34.17-69.1"/>
</g>
<g class="st0">
	<ellipse class="st1" cx="308.11" cy="180.67" rx="56" ry="24"/>
	<path class="st1" d="M252.11,180.67v40c0,13.26,25.07,24,56,24s56-10.74,56-24v-40"/>
	<path class="st1" d="M180.11,140.67v40c0,12.09,20.86,22.09,47.99,23.76"/>
	<ellipse class="st1" cx="236.11" cy="100.67" rx="56" ry="24"/>
	<line class="st1" x1="292.11" y1="132.67" x2="292.11" y2="100.67"/>
	<path class="st1" d="M180.11,100.67v40c0,12.53,22.42,22.82,51,23.91"/>
	<path class="st1" d="M228.12,244.42c-27.14-1.66-48.01-11.67-48.01-23.76v-40"/>
	<path class="st1" d="M364.11,220.67v40c0,13.26-25.07,24-56,24s-56-10.74-56-24v-40"/>
	<path class="st1" d="M393.91,196.82c11.32,12.72,18.2,29.48,18.2,47.85c0,39.76-32.24,72-72,72h-120v-40l-112,80l112,80v-40h112
		c55.92,0.05,95.94-44.72,96-107.62c0.03-31.83-10.71-63.63-29.13-85.84"/>
</g>
<path class="st5" d="M337.95,215.49c-0.73-0.97-1.96-1.41-3.13-1.11l-131.36,33.14c-1.16,0.29-2.03,1.24-2.23,2.41
	c-0.2,1.18,0.32,2.36,1.32,3.01l28.35,18.5v30.74c0,1.16,0.67,2.23,1.73,2.72c0.41,0.19,0.84,0.28,1.27,0.28
	c0.69,0,1.38-0.24,1.93-0.7l19.97-16.72l27.52,18.11c0.49,0.33,1.07,0.49,1.65,0.49c0.23,0,0.45-0.03,0.68-0.08
	c0.8-0.19,1.49-0.69,1.91-1.4l50.58-86.06C338.75,217.77,338.67,216.46,337.95,215.49z M234.46,266.59l-22.89-14.93l99.89-25.2
	L234.46,266.59z M236.9,295.75v-20.4l6.12,3.99l7.55,4.97L236.9,295.75z M283.98,299.11l-37.67-24.78c0,0-0.01,0-0.01-0.01
	l-6.08-3.97l87.44-45.57L283.98,299.11z"/>
<g class="st0">
	<path class="st6" d="M280.15,262.82c-1.4-0.93-2.81-1.98-4.17-3c-5.58-4.15-12.52-9.31-18.15-3.68c-2.4,2.4-4.43,2.09-5.06,1.9
		c-1.09-0.92-4.61-3.92-8.25-7.53c-4.79-4.74-4.82-6.37-2.42-10.3c4.88-7.99,2.69-11.11-3.8-20.38l-0.28-0.4
		c-2.47-3.53-5.55-7.2-9.7-7.7c-3.91-0.48-7.33,1.99-10.16,4.46c-6.89,6.03-8.43,15.8-4.01,25.51c3.01,6.61,11.91,23.28,29.62,35.17
		c8.83,5.93,16.42,9.79,23.42,9.79c4.64,0,9.02-1.69,13.33-5.6c3.48-3.16,5.11-6.52,4.82-9.99
		C284.93,266.11,280.74,263.2,280.15,262.82z M276.49,276.62c-6.3,5.72-12.58,6.55-29.37-4.72c-16.43-11.04-24.71-26.53-27.5-32.67
		c-3.32-7.31-2.39-14.23,2.5-18.51c2.33-2.04,4.05-3.04,5.25-3.04c0.08,0,0.16,0,0.24,0.01c1.38,0.17,3.18,1.86,5.51,5.19l0.28,0.4
		c6.3,9,6.37,9.26,3.59,13.81c-4.59,7.51-2.26,12.17,3.31,17.69c4.56,4.52,8.82,8.04,9,8.19c0.17,0.14,0.35,0.26,0.55,0.36
		c2.29,1.17,7.44,1.86,12.23-2.94c1.77-1.77,4.64,0.03,10.32,4.25c1.43,1.06,2.91,2.16,4.44,3.18c0.01,0.01,0.02,0.02,0.04,0.02
		c0.02,0.01,2.31,1.62,2.49,3.72C279.52,273.44,277.88,275.35,276.49,276.62z"/>
	<path class="st6" d="M248,191.03c-32.56,0-59.05,26.49-59.05,59.05c0,10.11,2.6,20.05,7.53,28.84l-7.19,27.62
		c-0.27,1.03,0.03,2.12,0.77,2.87c0.57,0.57,1.34,0.89,2.13,0.89c0.24,0,0.49-0.03,0.73-0.09l28.77-7.26
		c8.13,4.05,17.2,6.18,26.31,6.18c32.56,0,59.05-26.49,59.05-59.05S280.56,191.03,248,191.03z M248,303.14
		c-8.69,0-16.98-2.04-24.64-6.07c-0.74-0.39-1.63-0.41-2.42-0.13c-0.05,0.02-0.1,0.04-0.15,0.06l-24.42,6.16l6.22-23.9
		c0.2-0.77,0.09-1.59-0.32-2.28c-4.79-8.13-7.32-17.43-7.32-26.89c0-29.25,23.8-53.05,53.05-53.05c29.25,0,53.05,23.8,53.05,53.05
		C301.05,279.34,277.25,303.14,248,303.14z"/>
</g>
<path class="st5" d="M248,193.49c-31.53,0-57.17,25.65-57.17,57.17s25.65,57.17,57.17,57.17s57.17-25.65,57.17-57.17
	S279.53,193.49,248,193.49z M292.03,224.63c-6.16,1.13-12.34,2.02-18.52,2.67c-2.29-10.78-6.14-19.73-11.01-25.7
	C274.99,205.3,285.5,213.64,292.03,224.63z M269.86,250.67c0,5.75-0.4,11.15-1.12,16.13c-13.77-1.09-27.62-1.09-41.48-0.01
	c-0.72-4.97-1.12-10.37-1.12-16.12c0-6.04,0.45-11.68,1.23-16.85c6.8,0.56,13.61,0.85,20.42,0.85c6.95,0,13.89-0.31,20.83-0.89
	C269.41,238.97,269.86,244.62,269.86,250.67z M248,199.49c7.64,0,15.68,10.79,19.53,28.36c-13.01,1.05-26.05,1.07-39.06,0.03
	C232.31,210.3,240.35,199.49,248,199.49z M233.5,201.6c-4.87,5.98-8.72,14.94-11.01,25.74c-6.2-0.64-12.38-1.53-18.55-2.65
	C210.45,213.68,220.98,205.3,233.5,201.6z M196.83,250.67c0-7.25,1.52-14.14,4.25-20.4c6.76,1.27,13.54,2.27,20.33,2.99
	c-0.82,5.47-1.27,11.31-1.27,17.41c0,5.82,0.41,11.4,1.16,16.66c-6.87,0.69-13.73,1.65-20.59,2.88
	C198.21,264.18,196.83,257.58,196.83,250.67z M203.46,275.81c6.29-1.08,12.58-1.94,18.87-2.57c2.27,11.13,6.2,20.37,11.18,26.49
	C220.67,295.94,209.93,287.24,203.46,275.81z M248,301.84c-7.75,0-15.9-11.1-19.69-29.12c13.16-1,26.3-1,39.37,0.01
	C263.9,290.74,255.75,301.84,248,301.84z M262.5,299.73c4.98-6.12,8.9-15.35,11.17-26.47c6.3,0.63,12.58,1.51,18.83,2.61
	C286.03,287.27,275.31,295.94,262.5,299.73z M274.7,267.33c0.75-5.26,1.16-10.85,1.16-16.67c0-6.11-0.45-11.97-1.28-17.45
	c6.78-0.73,13.55-1.73,20.31-3.01c2.75,6.27,4.28,13.19,4.28,20.47c0,6.94-1.39,13.56-3.91,19.6
	C288.44,269.01,281.58,268.04,274.7,267.33z"/>
<g class="st0">
	<path class="st6" d="M242.27,289.47c0.95,1.78,2.78,2.88,4.8,2.88c2.01,0,3.85-1.1,4.8-2.88l17.68-33.18
		c0.56-1.05,0.86-2.24,0.86-3.44v-52.76c0-4.07-3.31-7.38-7.38-7.38H231.1c-4.07,0-7.38,3.31-7.38,7.38v52.76
		c0,1.2,0.3,2.38,0.86,3.44L242.27,289.47z M247.06,285.71l-15.34-28.79h30.68L247.06,285.71z M229.73,200.09
		c0-0.76,0.62-1.38,1.38-1.38h31.92c0.76,0,1.38,0.62,1.38,1.38v50.84h-34.67V200.09z"/>
	<rect x="210.79" y="302.62" class="st6" width="74.43" height="6"/>
</g>
<g class="st0">
	<path class="st6" d="M317.54,281.45h-4.06v-73.26c0-6.69-5.44-12.13-12.13-12.13H194.65c-6.69,0-12.13,5.44-12.13,12.13v73.26
		h-4.06c-1.66,0-3,1.34-3,3v8.32c0,6.9,5.61,12.51,12.51,12.51h120.06c6.9,0,12.51-5.61,12.51-12.51v-8.32
		C320.54,282.79,319.2,281.45,317.54,281.45z M188.52,208.18c0-3.38,2.75-6.13,6.13-6.13h106.71c3.38,0,6.13,2.75,6.13,6.13v73.26
		h-41.99c-0.8,0-1.57,0.32-2.13,0.89c-0.56,0.57-0.88,1.34-0.87,2.15l0.01,0.88h-27.82v-0.92c0-1.66-1.34-3-3-3h-43.16V208.18z
		 M314.54,292.77c0,3.59-2.92,6.51-6.51,6.51H187.97c-3.59,0-6.51-2.92-6.51-6.51v-5.32h47.22v0.92c0,1.66,1.34,3,3,3h33.86
		c0.8,0,1.57-0.32,2.13-0.89c0.56-0.57,0.88-1.34,0.87-2.15l-0.01-0.88h46.01V292.77z"/>
	<path class="st6" d="M243.42,261.22c0.06,0,0.12,0,0.19-0.01c1.31-0.08,2.41-1,2.73-2.27l2.96-11.88l13.91,13.91
		c0.59,0.59,1.35,0.88,2.12,0.88c0.77,0,1.54-0.29,2.12-0.88c1.17-1.17,1.17-3.07,0-4.24l-13.91-13.91l11.88-2.96
		c1.27-0.32,2.19-1.42,2.27-2.73c0.08-1.31-0.69-2.51-1.92-2.98l-34.58-13.31c-1.11-0.43-2.36-0.16-3.2,0.68
		c-0.84,0.84-1.1,2.09-0.68,3.2l13.31,34.58C241.07,260.46,242.19,261.22,243.42,261.22z M254.75,236.34l-7.26,1.81
		c-0.73,0.03-1.45,0.31-2,0.87c-0.56,0.56-0.84,1.28-0.87,2l-1.81,7.26l-7.48-19.41L254.75,236.34z"/>
</g>
<g id="Gestione_listini" class="st0">
	<path class="st7" d="M245.27,192.77h-72.95H245.27z"/>
	<path class="st7" d="M279.83,248.14h-107.5H279.83z"/>
	<path class="st7" d="M279.83,303.51h-107.5H279.83z"/>
	<line class="st8" x1="116.52" y1="389.14" x2="335.41" y2="389.14"/>
	<path class="st9" d="M328.63,397.33c0-11.07-0.02-264.09-0.02-264.09l-205.05,0c0,0,0,170.94,0,259.54c0-88.6,0-259.54,0-259.54
		l205.05,0c0,0,0,252.59,0,263.67"/>
	<path class="st7" d="M373.45,333.23c0-9.82,0-256.24,0-256.24L168.4,77c0,0,0,6.13,0,21.81c0-15.68,0-21.81,0-21.81l205.05,0
		C373.45,77,373.45,323.41,373.45,333.23z"/>
</g>
<g id="Gestione_categorie" class="st0">
	<polyline class="st10" points="102.1,236.9 102.1,223.38 135.92,162.5 149.44,162.5 	"/>
	<polyline class="st10" points="413.24,236.9 413.24,223.38 379.42,162.5 365.89,162.5 	"/>
	<path class="st10" d="M325.31,236.9l-20.29,20.29h-94.69l-20.29-20.29H102.1v128.51h311.14V236.9H325.31z"/>
	<polyline class="st10" points="149.44,223.38 149.44,189.56 365.89,189.56 365.89,223.38 	"/>
	<polyline class="st10" points="169.74,176.03 169.74,155.74 345.6,155.74 345.6,176.03 	"/>
	<polyline class="st10" points="183.26,142.21 183.26,121.92 332.07,121.92 332.07,142.21 	"/>
	<path class="st10" d="M284.72,324.83h-54.11c-3.74,0-6.76-3.03-6.76-6.76v-27.06h67.64v27.06
		C291.49,321.81,288.46,324.83,284.72,324.83z"/>
</g>
<g id="Gestione_prestazioni" class="st0">
	<polygon class="st11" points="206.18,158.94 159.62,210.03 72.31,210.03 72.31,422.79 438.99,422.79 438.99,158.94 	"/>
	<polygon class="st11" points="206.18,158.94 159.62,210.03 72.31,210.03 72.31,422.79 438.99,422.79 438.99,158.94 	"/>
	<polygon class="st11" points="438.99,115.6 438.99,86.99 182.9,86.99 136.33,138.08 72.31,138.08 72.31,175.26 72.31,138.08 
		136.33,138.08 182.9,86.99 438.99,86.99 	"/>
	<path class="st11" d="M381.63,227.88H274.54H381.63z"/>
	<path class="st11" d="M381.63,279.51H274.54H381.63z"/>
</g>
<g id="Prestazioni_rapide" class="st0">
	<line class="st12" x1="142.92" y1="179.38" x2="222.92" y2="179.38"/>
	<polyline class="st12" points="70.92,155.38 70.92,379.38 294.92,379.38 294.92,75.38 126.92,75.38 	"/>
	<polyline class="st12" points="393.4,141.14 438.92,155.38 342.92,443.38 247.08,411.38 	"/>
	<polyline class="st12" points="318.92,97.46 374.92,107.38 322.12,406.74 	"/>
	<polygon class="st12" points="70.92,131.38 126.92,131.38 126.92,75.38 118.92,75.38 70.92,123.38 	"/>
	<line class="st12" x1="118.92" y1="227.38" x2="246.92" y2="227.38"/>
	<line class="st12" x1="118.92" y1="259.38" x2="246.92" y2="259.38"/>
	<line class="st12" x1="118.92" y1="291.38" x2="206.92" y2="291.38"/>
</g>
<g id="Lista_scontistica" class="st0">
	<g class="st2">
		<path class="st13" d="M355.37,330.67v39.44c0,7.51-6.09,13.6-13.6,13.6H124.08c-7.51,0-13.6-6.09-13.6-13.6V254.47"/>
		<path class="st13" d="M300.95,104.81h40.82c7.51,0,13.6,6.09,13.6,13.6v63.8"/>
		<path class="st13" d="M110.48,259.56V118.42c0-7.51,6.09-13.6,13.6-13.6h40.81"/>
		<polyline class="st13" points="328.16,337.33 328.16,356.51 137.69,356.51 137.69,281.68 		"/>
		<polyline class="st13" points="300.95,132.02 328.16,132.02 328.16,173.78 		"/>
		<polyline class="st13" points="137.69,284.44 137.69,132.02 164.9,132.02 		"/>
		<path class="st13" d="M280.54,98.01h-20.41c0-15.03-12.18-27.21-27.21-27.21c-15.03,0-27.21,12.18-27.21,27.21h-20.41
			c-11.27,0-20.41,9.14-20.41,20.41v20.41h136.05v-20.41C300.95,107.15,291.81,98.01,280.54,98.01z"/>
		<line class="st13" x1="232.92" y1="91.21" x2="232.92" y2="104.81"/>
	</g>
	<g class="st2">
		<g>
			<path class="st14" d="M293.18,223.36c7.9,0,14.3,6.4,14.3,14.3v0c0,7.9-6.4,14.3-14.3,14.3h0c-7.9,0-14.3-6.4-14.3-14.3v0
				C278.88,229.76,285.28,223.36,293.18,223.36L293.18,223.36z"/>
			<path class="st14" d="M344.65,291.98c7.9,0,14.3-6.4,14.3-14.3l0,0c0-7.9-6.4-14.3-14.3-14.3h0c-7.9,0-14.3,6.4-14.3,14.3l0,0
				C330.35,285.58,336.75,291.98,344.65,291.98L344.65,291.98z"/>
			<line class="st14" x1="296.04" y1="297.7" x2="341.79" y2="217.64"/>
		</g>
		<circle class="st15" cx="316.39" cy="256.3" r="72.3"/>
	</g>
</g>
<g id="Gestione_documenti_00000018935178587492438220000007177602219503856032_" class="st0">
	<line class="st12" x1="270.67" y1="182" x2="366.67" y2="182"/>
	<polyline class="st12" points="254.67,70 438.67,70 438.67,390 334.67,390 	"/>
	<line class="st12" x1="198.67" y1="150" x2="198.67" y2="238"/>
	<polygon class="st12" points="198.67,126 254.67,126 254.67,70 246.67,70 198.67,118 	"/>
	<line class="st12" x1="246.67" y1="230" x2="390.67" y2="230"/>
	<line class="st12" x1="294.67" y1="262" x2="390.67" y2="262"/>
	<line class="st12" x1="334.67" y1="294" x2="390.67" y2="294"/>
	<path class="st12" d="M90.67,438h200c11.05,0,20-8.95,20-20V294h-200v124C110.67,429.05,101.71,438,90.67,438s-20-8.95-20-20
		V246.94c0-4.94,4-8.94,8.94-8.94h50.21c8.02,0,15.52,4.01,19.97,10.69l8.88,13.31h112v32"/>
</g>
<g id="Gestione_anamnesi" class="st0">
	<path class="st16" d="M247.34,155.57c-48.4,0-116.24,0-139.88,0v181.47c4.02,0,7.35,0,15.55,0c-8.2,0-11.53,0-15.55,0V155.57
		C131.09,155.57,198.93,155.57,247.34,155.57z"/>
	<path class="st16" d="M371.39,172.42c0-11.65,0-13.9,0-16.85c0,0-33.61,0-61.63,0c28.02,0,61.63,0,61.63,0
		C371.39,158.52,371.39,160.77,371.39,172.42z"/>
	<path class="st16" d="M247.72,195.18c-33.67,0-83.75,0-100.95,0v181.47c33.41,0,230.84,0,263.93,0c0-18.41,0-166.83,0-181.47
		c0,0-52.3,0-100.94,0c48.65,0,100.94,0,100.94,0c0,14.64,0,163.06,0,181.47c-33.08,0-230.52,0-263.93,0V195.18
		C163.97,195.18,214.05,195.18,247.72,195.18z"/>
	<path class="st16" d="M289.25,216.59v-45.91c0-5.08-4.12-9.19-9.19-9.19h-3.66c-5.08,0-9.19,4.12-9.19,9.19v67.61
		c0,5.08,4.11,9.19,9.19,9.19h24.17c5.08,0,9.19-4.12,9.19-9.19V137.19c0-5.08-4.12-9.19-9.19-9.19h-43.65
		c-5.08,0-9.19,4.12-9.19,9.19v79.4v-79.4c0-5.08,4.12-9.19,9.19-9.19h43.65c5.08,0,9.19,4.12,9.19,9.19v101.09
		c0,5.08-4.12,9.19-9.19,9.19h-24.17c-5.08,0-9.19-4.12-9.19-9.19v-67.61c0-5.08,4.11-9.19,9.19-9.19h3.66
		c5.08,0,9.19,4.12,9.19,9.19V216.59z"/>
</g>
<g id="Logo_documento" class="st0">
	<polyline class="st17" points="342.22,110.67 398.22,110.67 398.22,438.67 142.22,438.67 142.22,110.67 182.22,110.67 	"/>
	<polyline class="st17" points="214.22,102.67 310.22,78.67 350.22,206.67 198.22,238.67 182.22,182.67 	"/>
	<line class="st17" x1="198.22" y1="350.67" x2="342.22" y2="350.67"/>
	<line class="st17" x1="198.22" y1="318.67" x2="342.22" y2="318.67"/>
	<line class="st17" x1="198.22" y1="286.67" x2="342.22" y2="286.67"/>
	<line class="st17" x1="198.22" y1="382.67" x2="270.22" y2="382.67"/>
	<path class="st17" d="M166.22,134.67v8c0,8.84,7.16,16,16,16l0,0c8.84,0,16-7.16,16-16v-48c0-8.84-7.16-16-16-16h-8
		c-8.84,0-16,7.16-16,16v16"/>
</g>
<g id="Apetto_preventivi" class="st0">
	<path class="st18" d="M110.37,232.9V69.1c0-10.05,8.15-18.2,18.2-18.2h200.2l72.8,72.8v291.2c0,10.05-8.15,18.2-18.2,18.2h-254.8
		c-10.05,0-18.2-8.15-18.2-18.2v-45.5"/>
	<polyline class="st18" points="374.27,132.8 319.67,132.8 319.67,78.2 	"/>
	<path class="st18" d="M317.67,369.4H57.77c-1.1,0-2-0.9-2-2V234.9c0-1.1,0.9-2,2-2h259.9c1.1,0,2,0.9,2,2v132.5
		C319.67,368.5,318.77,369.4,317.67,369.4z"/>
</g>
<g id="Note_di_stampa">
	<g id="Gestione_listini_00000165208876442344146880000014515789841303229061_">
		<path class="st19" d="M176.95,124.75h-64.3H176.95z"/>
		<path class="st20" d="M187.56,173.55h-74.91H187.56z"/>
		<path class="st21" d="M194.96,222.36h-82.31H194.96z"/>
		<line class="st22" x1="63.45" y1="297.84" x2="163.56" y2="297.84"/>
		<path class="st23" d="M250.41,72.27l-180.75,0c0,0,0,150.68,0,228.78c0-78.1,0-228.78,0-228.78L250.41,72.27c0,0,0,104.04,0,113.8
			"/>
	</g>
	<g>
		<path class="st24" d="M371.31,368.23h45.8c6.32,0,11.45-5.13,11.45-11.45V253.72c0-6.32-5.13-11.45-11.45-11.45h-22.9"/>
		<path class="st24" d="M199.56,242.27h-22.9c-6.32,0-11.45,5.13-11.45,11.45v103.05c0,6.32,5.13,11.45,11.45,11.45h45.8"/>
		<rect x="222.46" y="185.02" class="st24" width="148.85" height="114.5"/>
		<rect x="222.46" y="339.6" class="st24" width="148.85" height="57.25"/>
		<line class="st24" x1="188.11" y1="299.52" x2="405.67" y2="299.52"/>
		<line class="st24" x1="193.84" y1="322.42" x2="193.84" y2="333.87"/>
		<line class="st24" x1="199.56" y1="282.35" x2="199.56" y2="213.65"/>
		<line class="st24" x1="394.22" y1="282.35" x2="394.22" y2="213.65"/>
	</g>
</g>
<g id="Numerazione_preventivi_00000006679421536351458270000006563271654482648986_" class="st0">
	<polygon class="st25" points="128,204.61 242.96,319.57 261.11,361.92 218.75,343.77 103.79,228.81 	"/>
	<path class="st25" d="M121.95,204.61l-6.05-6.05c-5.01-5.01-13.14-5.01-18.15,0l0,0c-5.01,5.01-5.01,13.14,0,18.15l6.05,6.05"/>
	<line class="st25" x1="236.91" y1="319.57" x2="218.75" y2="337.72"/>
	<path class="st26" d="M164.3,216.71v-66.56c0-6.68,5.42-12.1,12.1-12.1h133.11l48.4,48.4v193.62c0,6.68-5.42,12.1-12.1,12.1H176.4
		c-6.68,0-12.1-5.42-12.1-12.1v-66.56"/>
	<polyline class="st26" points="339.76,192.51 303.46,192.51 303.46,156.2 	"/>
	<line class="st25" x1="279.26" y1="361.92" x2="327.66" y2="361.92"/>
	<line class="st25" x1="206.65" y1="228.81" x2="321.61" y2="228.81"/>
	<line class="st25" x1="206.65" y1="253.01" x2="321.61" y2="253.01"/>
	<line class="st25" x1="230.86" y1="277.21" x2="321.61" y2="277.21"/>
	<line class="st25" x1="255.06" y1="301.41" x2="321.61" y2="301.41"/>
</g>
</svg>
