<?xml version="1.0" encoding="utf-8"?>
<!-- Generator: Adobe Illustrator 27.2.0, SVG Export Plug-In . SVG Version: 6.00 Build 0)  -->
<svg class="tax-compliance" version="1.1" id="InvioFatturazioneElettronica-SVG" xmlns="http://www.w3.org/2000/svg" xmlns:xlink="http://www.w3.org/1999/xlink"
	 x="0px" y="0px" viewBox="0 0 496 501.33" style="enable-background:new 0 0 496 501.33;" xml:space="preserve">
<style type="text/css">
	#InvioFatturazioneElettronica-SVG .st0{fill:none; ;stroke-width:16;stroke-miterlimit:10;}
</style>
<g id="Ñëîé_35">
	<path class="st0" d="M314.03,430.33h62.56c5.28,0,10.24-2.4,13.44-6.56c3.28-4.16,4.4-9.6,3.12-14.72l-31.12-122.72H97.3
		L66.18,409.05c-1.28,5.12-0.16,10.56,3.12,14.72c3.2,4.16,8.16,6.56,13.44,6.56h62.56"/>
	<line class="st0" x1="153.3" y1="358.33" x2="305.3" y2="358.33"/>
	<line class="st0" x1="321.3" y1="358.33" x2="345.3" y2="358.33"/>
	<line class="st0" x1="113.3" y1="358.33" x2="137.3" y2="358.33"/>
	<line class="st0" x1="121.3" y1="326.33" x2="145.3" y2="326.33"/>
	<line class="st0" x1="169.3" y1="326.33" x2="193.3" y2="326.33"/>
	<line class="st0" x1="217.3" y1="326.33" x2="241.3" y2="326.33"/>
	<line class="st0" x1="265.3" y1="326.33" x2="289.3" y2="326.33"/>
	<line class="st0" x1="313.3" y1="326.33" x2="337.3" y2="326.33"/>
	<polygon class="st0" points="281.3,390.33 177.3,390.33 169.3,430.33 289.3,430.33 	"/>
	<path class="st0" d="M201.67,102.33h-84c-11.05,0-20,8.95-20,20v164"/>
	<line class="st0" x1="361.67" y1="286.33" x2="361.67" y2="262.33"/>
	<polyline class="st0" points="433.67,190.33 433.67,62.33 289.67,62.33 289.67,254.33 393.67,254.33 	"/>
	<polygon class="st0" points="433.67,214.33 393.67,214.33 393.67,254.33 401.67,254.33 433.67,222.33 	"/>
	<line class="st0" x1="257.67" y1="62.33" x2="257.67" y2="254.33"/>
	<line class="st0" x1="225.67" y1="70.33" x2="225.67" y2="246.33"/>
</g>
</svg>
