<?xml version="1.0" encoding="utf-8"?>
<!-- Generator: Adobe Illustrator 27.4.0, SVG Export Plug-In . SVG Version: 6.00 Build 0)  -->
<svg class="receipts-purchases" version="1.1" id="Icona-ProForma-SVG" xmlns="http://www.w3.org/2000/svg" xmlns:xlink="http://www.w3.org/1999/xlink"
	 x="0px" y="0px" viewBox="0 0 496 501.33" style="enable-background:new 0 0 496 501.33;" xml:space="preserve">
<style type="text/css">
	#Icona-ProForma-SVG .st0{display:none;}
	#Icona-ProForma-SVG .st1{display:inline;fill:none; ;stroke-width:16;stroke-miterlimit:10;}
	#Icona-ProForma-SVG .st2{fill:none; ;stroke-width:16;stroke-miterlimit:10;}
	#Icona-ProForma-SVG .st3{fill:#9DC44F;}
</style>
<g id="Ñëîé_35">
	<g class="st0">
		<path class="st1" d="M282.03,394.78h62.56c5.28,0,10.24-2.4,13.44-6.56c3.28-4.16,4.4-9.6,3.12-14.72l-31.12-122.72H65.3
			L34.18,373.5c-1.28,5.12-0.16,10.56,3.12,14.72c3.2,4.16,8.16,6.56,13.44,6.56h62.56"/>
		<line class="st1" x1="121.3" y1="322.78" x2="273.3" y2="322.78"/>
		<line class="st1" x1="289.3" y1="322.78" x2="313.3" y2="322.78"/>
		<line class="st1" x1="81.3" y1="322.78" x2="105.3" y2="322.78"/>
		<line class="st1" x1="89.3" y1="290.78" x2="113.3" y2="290.78"/>
		<line class="st1" x1="137.3" y1="290.78" x2="161.3" y2="290.78"/>
		<line class="st1" x1="185.3" y1="290.78" x2="209.3" y2="290.78"/>
		<line class="st1" x1="233.3" y1="290.78" x2="257.3" y2="290.78"/>
		<line class="st1" x1="281.3" y1="290.78" x2="305.3" y2="290.78"/>
		<polygon class="st1" points="249.3,354.78 145.3,354.78 137.3,394.78 257.3,394.78 		"/>
		<path class="st1" d="M169.67,66.78h-84c-11.05,0-20,8.95-20,20v164"/>
		<line class="st1" x1="329.67" y1="250.78" x2="329.67" y2="226.78"/>
		<polyline class="st1" points="401.67,154.78 401.67,26.78 257.67,26.78 257.67,218.78 361.67,218.78 		"/>
		<polygon class="st1" points="401.67,178.78 361.67,178.78 361.67,218.78 369.67,218.78 401.67,186.78 		"/>
		<line class="st1" x1="225.67" y1="26.78" x2="225.67" y2="218.78"/>
		<line class="st1" x1="193.67" y1="34.78" x2="193.67" y2="210.78"/>
	</g>
	<g class="st0">
		<polyline class="st1" points="356.22,399.78 388.22,399.78 388.22,79.78 348.22,79.78 		"/>
		<polyline class="st1" points="268.22,79.78 148.22,79.78 148.22,111.78 		"/>
		<path class="st1" d="M324.22,87.78v-8c0-8.84-7.16-16-16-16c-8.84,0-16,7.16-16,16v48c0,8.84,7.16,16,16,16c8.84,0,16-7.16,16-16
			v-16h32v320h-160"/>
		<polyline class="st1" points="116.22,375.78 172.22,375.78 172.22,431.78 164.22,431.78 116.22,383.78 116.22,111.78 
			268.22,111.78 		"/>
		<line class="st1" x1="188.22" y1="207.78" x2="284.22" y2="207.78"/>
		<line class="st1" x1="164.22" y1="255.78" x2="308.22" y2="255.78"/>
		<line class="st1" x1="164.22" y1="287.78" x2="308.22" y2="287.78"/>
		<line class="st1" x1="164.22" y1="319.78" x2="252.22" y2="319.78"/>
	</g>
	<g class="st0">
		<polyline class="st1" points="352.67,137.56 352.67,65.56 120.67,65.56 		"/>
		<polygon class="st1" points="64.67,121.56 120.67,121.56 120.67,65.56 112.67,65.56 64.67,113.56 		"/>
		<path class="st1" d="M320.67,265.56c0,20.02-7.35,39.35-24,56h-16c4.48-13.43,8-21.95,8-36.54v-11.46h-16c-17.67,0-32-14.33-32-32
			v-16c0-17.67,14.33-32,32-32h16c17.67,0,32,14.33,32,32V265.56z"/>
		<path class="st1" d="M432.67,265.56c0,20.02-7.35,39.35-24,56h-16c4.48-13.43,8-21.95,8-36.54v-11.46h-16c-17.67,0-32-14.33-32-32
			v-16c0-17.67,14.33-32,32-32h16c17.67,0,32,14.33,32,32V265.56z"/>
		<polyline class="st1" points="352.67,377.56 352.67,433.56 64.67,433.56 64.67,145.56 		"/>
		<line class="st1" x1="440.67" y1="353.56" x2="96.67" y2="353.56"/>
		<line class="st1" x1="440.67" y1="161.56" x2="96.67" y2="161.56"/>
		<line class="st1" x1="216.67" y1="209.56" x2="128.67" y2="209.56"/>
		<line class="st1" x1="216.67" y1="241.56" x2="128.67" y2="241.56"/>
		<line class="st1" x1="216.67" y1="273.56" x2="128.67" y2="273.56"/>
		<line class="st1" x1="176.67" y1="305.56" x2="128.67" y2="305.56"/>
	</g>
	<g class="st0">
		<polyline class="st1" points="291.33,372.22 291.33,428.22 139.33,428.22 		"/>
		<polyline class="st1" points="59.33,372.22 115.33,372.22 115.33,428.22 107.33,428.22 59.33,380.22 59.33,108.22 171.33,108.22 
					"/>
		<polyline class="st1" points="195.33,116.22 195.33,60.22 347.33,60.22 		"/>
		<polyline class="st1" points="427.33,116.22 371.33,116.22 371.33,60.22 379.33,60.22 427.33,108.22 427.33,380.22 315.33,380.22 
					"/>
		<polyline class="st1" points="195.33,140.22 195.33,188.22 243.33,196.22 		"/>
		<path class="st1" d="M315.14,276.22c41.51-51.48,51.12-107.31,27.66-131.39c-26.57-26.38-92.29-11.4-147.47,43.39"/>
		<polyline class="st1" points="291.33,348.22 291.33,300.22 243.33,292.22 		"/>
		<path class="st1" d="M171.53,212.22c-41.51,51.48-51.12,107.31-27.66,131.39c26.57,26.38,92.29,11.4,147.47-43.39"/>
	</g>
	<g class="st0">
		<polyline class="st1" points="294.89,374 294.89,430 142.89,430 		"/>
		<polyline class="st1" points="62.89,374 118.89,374 118.89,430 110.89,430 62.89,382 62.89,110 174.89,110 		"/>
		<polyline class="st1" points="198.89,118 198.89,62 350.89,62 		"/>
		<polyline class="st1" points="430.89,118 374.89,118 374.89,62 382.89,62 430.89,110 430.89,382 318.89,382 		"/>
		<polyline class="st1" points="278.89,182 198.89,182 198.89,150 118.89,214 198.89,278 198.89,246 238.89,246 		"/>
		<line class="st1" x1="302.89" y1="182" x2="334.89" y2="182"/>
		<line class="st1" x1="350.89" y1="182" x2="366.89" y2="182"/>
		<line class="st1" x1="382.89" y1="182" x2="398.89" y2="182"/>
		<polyline class="st1" points="230.89,310 294.89,310 294.89,342 374.89,278 294.89,214 294.89,246 254.89,246 		"/>
		<line class="st1" x1="198.89" y1="310" x2="166.89" y2="310"/>
		<line class="st1" x1="150.89" y1="310" x2="134.89" y2="310"/>
		<line class="st1" x1="118.89" y1="310" x2="102.89" y2="310"/>
	</g>
	<g>
		<polyline class="st2" points="304.9,426.33 96.9,426.33 96.9,74.33 320.9,74.33 352.9,106.33 352.9,218.33 		"/>
		<polyline class="st2" points="304.9,98.33 304.9,122.33 328.9,122.33 		"/>
		<line class="st2" x1="224.9" y1="178.33" x2="304.9" y2="178.33"/>
		<line class="st2" x1="224.9" y1="146.33" x2="264.9" y2="146.33"/>
		<line class="st2" x1="224.9" y1="210.33" x2="264.9" y2="210.33"/>
		<polyline class="st2" points="288.9,346.33 288.9,290.33 256.9,290.33 312.9,218.33 368.9,290.33 336.9,290.33 336.9,306.33 		"/>
		<polyline class="st2" points="384.9,330.33 384.9,370.33 416.9,370.33 360.9,442.33 304.9,370.33 336.9,370.33 336.9,338.33 		"/>
		<line class="st2" x1="144.9" y1="314.33" x2="144.9" y2="386.33"/>
		<line class="st2" x1="176.9" y1="354.33" x2="176.9" y2="386.33"/>
		<line class="st2" x1="208.9" y1="314.33" x2="208.9" y2="386.33"/>
		<line class="st2" x1="240.9" y1="330.33" x2="240.9" y2="386.33"/>
		<g>
			<path class="st3" d="M113.43,172.65v-12h71.14v12H113.43z M113.43,197.87v-12h71.14v12H113.43z M174.23,242.31
				c-33.75,0-50.62-21.22-50.62-63.66c0-20.12,4.14-35.7,12.44-46.75c8.29-11.04,20.03-16.57,35.22-16.57c8.35,0,15.6,1.67,21.74,5
				c6.15,3.33,10.64,8.02,13.48,14.05l-14.61,11.05c-2.32-4.46-5.26-7.93-8.83-10.39c-3.57-2.46-7.44-3.7-11.61-3.7
				c-8.87,0-15.96,4.03-21.26,12.09c-5.3,8.06-7.96,19.51-7.96,34.35c0,32.35,11.65,48.53,34.96,48.53c7.88,0,15.6-1.74,23.13-5.22
				l4,15.31C194.69,240.34,184.66,242.31,174.23,242.31z"/>
		</g>
	</g>
</g>
</svg>
